<svg width="389" height="276" viewBox="0 0 389 276" fill="none" xmlns="http://www.w3.org/2000/svg">
<mask id="path-1-outside-1_1_8" maskUnits="userSpaceOnUse" x="-1" y="-1" width="391" height="278" fill="black">
<rect fill="white" x="-1" y="-1" width="391" height="278"/>
<path d="M35.576 93.536C29.688 93.536 24.312 92.4267 19.448 90.208C14.584 87.9893 10.5307 84.9173 7.288 80.992C4.04533 76.9813 1.86933 72.3307 0.76 67.04L9.592 64.864L11 65.12C11.9387 68.704 13.6027 71.9467 15.992 74.848C18.3813 77.664 21.24 79.9253 24.568 81.632C27.9813 83.3387 31.608 84.192 35.448 84.192C39.6293 84.192 43.2987 83.5093 46.456 82.144C49.6987 80.7787 52.216 78.9013 54.008 76.512C55.8853 74.0373 56.824 71.2213 56.824 68.064C56.824 63.7973 55.6293 60.5547 53.24 58.336C50.8507 56.032 47.608 54.3253 43.512 53.216L25.976 48.352C19.064 46.3893 13.816 43.3173 10.232 39.136C6.648 34.9547 4.856 30.1333 4.856 24.672C4.856 19.9787 6.05067 15.8827 8.44 12.384C10.9147 8.8 14.328 5.984 18.68 3.936C23.032 1.888 28.024 0.863998 33.656 0.863998C39.2027 0.863998 44.1947 1.93066 48.632 4.064C53.1547 6.11199 56.8667 9.01333 59.768 12.768C62.7547 16.5227 64.7173 20.9173 65.656 25.952L56.696 27.872L55.288 27.616C54.1787 22.3253 51.6613 18.1013 47.736 14.944C43.8107 11.7867 39.1173 10.208 33.656 10.208C28.024 10.208 23.5013 11.5307 20.088 14.176C16.76 16.8213 15.096 20.3627 15.096 24.8C15.096 28.2987 16.2907 31.2 18.68 33.504C21.0693 35.808 24.5253 37.6 29.048 38.88L46.584 43.744C53.0693 45.536 58.104 48.48 61.688 52.576C65.272 56.5867 67.064 61.5787 67.064 67.552C67.064 72.7573 65.7413 77.3227 63.096 81.248C60.536 85.088 56.8667 88.1173 52.088 90.336C47.3947 92.4693 41.8907 93.536 35.576 93.536ZM132.252 28.896C132.252 23.6053 130.716 19.4667 127.644 16.48C124.572 13.408 120.348 11.872 114.972 11.872H89.244V2.39999H114.972C123.335 2.39999 130.033 4.78933 135.068 9.56799C140.103 14.3467 142.62 20.7893 142.62 28.896H132.252ZM83.74 92V2.39999H93.34V92H83.74ZM89.244 55.392V45.92H114.972C120.348 45.92 124.572 44.4267 127.644 41.44C130.716 38.368 132.252 34.1867 132.252 28.896H142.62C142.62 36.9173 140.103 43.36 135.068 48.224C130.033 53.0027 123.335 55.392 114.972 55.392H89.244ZM207.968 92L175.584 5.088L174.688 2.39999H184.288L218.336 90.976V92H207.968ZM140.64 92V90.976L174.688 2.39999H184.288L183.392 5.088L151.008 92H140.64ZM153.184 68.32L157.024 58.976H203.232L207.072 68.32H153.184ZM262.613 93.536C254.677 93.536 247.594 91.616 241.365 87.776C235.221 83.936 230.357 78.56 226.773 71.648C223.274 64.6507 221.525 56.5013 221.525 47.2C221.525 37.8133 223.274 29.664 226.773 22.752C230.357 15.84 235.221 10.464 241.365 6.62399C247.594 2.784 254.677 0.863998 262.613 0.863998C271.232 0.863998 278.912 3.168 285.653 7.77599C292.394 12.2987 297.429 18.784 300.757 27.232L292.437 29.664L291.029 29.408C288.384 23.0933 284.629 18.3147 279.765 15.072C274.901 11.8293 269.312 10.208 262.997 10.208C256.938 10.208 251.52 11.7013 246.741 14.688C241.962 17.6747 238.208 21.9413 235.477 27.488C232.746 33.0347 231.381 39.6053 231.381 47.2C231.381 54.7947 232.746 61.3653 235.477 66.912C238.208 72.4587 241.962 76.7253 246.741 79.712C251.52 82.6987 256.938 84.192 262.997 84.192C269.312 84.192 274.901 82.5707 279.765 79.328C284.629 76 288.384 71.2213 291.029 64.992L292.437 64.736L300.757 67.168C297.429 75.616 292.394 82.144 285.653 86.752C278.912 91.2747 271.232 93.536 262.613 93.536ZM316.115 92V2.39999H325.715V92H316.115ZM321.107 92V82.656H372.563V92H321.107ZM321.107 51.296V41.952H370.003V51.296H321.107ZM321.107 11.744V2.39999H372.563V11.744H321.107ZM45.688 274L45.816 271.312L82.936 184.4H92.024V187.088L54.904 274H45.688ZM5.24 274V184.4H14.84V274H5.24ZM45.816 274L8.568 187.088V184.4H17.784L54.904 271.312V274H45.816ZM85.752 274V184.4H95.352V274H85.752ZM154.265 275.536C146.158 275.536 138.905 273.616 132.505 269.776C126.105 265.851 121.07 260.432 117.401 253.52C113.817 246.523 112.025 238.416 112.025 229.2C112.025 219.984 113.817 211.92 117.401 205.008C121.07 198.011 126.105 192.592 132.505 188.752C138.905 184.827 146.158 182.864 154.265 182.864C162.457 182.864 169.71 184.827 176.025 188.752C182.425 192.592 187.417 198.011 191.001 205.008C194.67 211.92 196.505 219.984 196.505 229.2C196.505 238.416 194.67 246.523 191.001 253.52C187.417 260.432 182.425 265.851 176.025 269.776C169.71 273.616 162.457 275.536 154.265 275.536ZM154.265 266.192C160.409 266.192 165.913 264.656 170.777 261.584C175.726 258.512 179.609 254.203 182.425 248.656C185.241 243.109 186.649 236.624 186.649 229.2C186.649 221.691 185.241 215.163 182.425 209.616C179.609 204.069 175.726 199.803 170.777 196.816C165.913 193.744 160.409 192.208 154.265 192.208C148.121 192.208 142.617 193.744 137.753 196.816C132.889 199.803 129.006 204.069 126.105 209.616C123.289 215.163 121.881 221.691 121.881 229.2C121.881 236.624 123.289 243.109 126.105 248.656C129.006 254.203 132.889 258.512 137.753 261.584C142.617 264.656 148.121 266.192 154.265 266.192ZM271.867 274L213.115 187.088V184.4H222.715L281.467 271.312V274H271.867ZM213.115 274V184.4H222.715V274H213.115ZM271.867 274V184.4H281.467V274H271.867ZM306.598 250.32V236.496L353.83 184.4H365.734V185.424L306.598 250.32ZM301.99 274V184.4H311.59V274H301.99ZM357.286 274L322.854 227.536L329.894 220.88L368.294 272.976V274H357.286ZM379.115 274V184.4H388.715V274H379.115Z"/>
</mask>
<path d="M35.576 93.536C29.688 93.536 24.312 92.4267 19.448 90.208C14.584 87.9893 10.5307 84.9173 7.288 80.992C4.04533 76.9813 1.86933 72.3307 0.76 67.04L9.592 64.864L11 65.12C11.9387 68.704 13.6027 71.9467 15.992 74.848C18.3813 77.664 21.24 79.9253 24.568 81.632C27.9813 83.3387 31.608 84.192 35.448 84.192C39.6293 84.192 43.2987 83.5093 46.456 82.144C49.6987 80.7787 52.216 78.9013 54.008 76.512C55.8853 74.0373 56.824 71.2213 56.824 68.064C56.824 63.7973 55.6293 60.5547 53.24 58.336C50.8507 56.032 47.608 54.3253 43.512 53.216L25.976 48.352C19.064 46.3893 13.816 43.3173 10.232 39.136C6.648 34.9547 4.856 30.1333 4.856 24.672C4.856 19.9787 6.05067 15.8827 8.44 12.384C10.9147 8.8 14.328 5.984 18.68 3.936C23.032 1.888 28.024 0.863998 33.656 0.863998C39.2027 0.863998 44.1947 1.93066 48.632 4.064C53.1547 6.11199 56.8667 9.01333 59.768 12.768C62.7547 16.5227 64.7173 20.9173 65.656 25.952L56.696 27.872L55.288 27.616C54.1787 22.3253 51.6613 18.1013 47.736 14.944C43.8107 11.7867 39.1173 10.208 33.656 10.208C28.024 10.208 23.5013 11.5307 20.088 14.176C16.76 16.8213 15.096 20.3627 15.096 24.8C15.096 28.2987 16.2907 31.2 18.68 33.504C21.0693 35.808 24.5253 37.6 29.048 38.88L46.584 43.744C53.0693 45.536 58.104 48.48 61.688 52.576C65.272 56.5867 67.064 61.5787 67.064 67.552C67.064 72.7573 65.7413 77.3227 63.096 81.248C60.536 85.088 56.8667 88.1173 52.088 90.336C47.3947 92.4693 41.8907 93.536 35.576 93.536ZM132.252 28.896C132.252 23.6053 130.716 19.4667 127.644 16.48C124.572 13.408 120.348 11.872 114.972 11.872H89.244V2.39999H114.972C123.335 2.39999 130.033 4.78933 135.068 9.56799C140.103 14.3467 142.62 20.7893 142.62 28.896H132.252ZM83.74 92V2.39999H93.34V92H83.74ZM89.244 55.392V45.92H114.972C120.348 45.92 124.572 44.4267 127.644 41.44C130.716 38.368 132.252 34.1867 132.252 28.896H142.62C142.62 36.9173 140.103 43.36 135.068 48.224C130.033 53.0027 123.335 55.392 114.972 55.392H89.244ZM207.968 92L175.584 5.088L174.688 2.39999H184.288L218.336 90.976V92H207.968ZM140.64 92V90.976L174.688 2.39999H184.288L183.392 5.088L151.008 92H140.64ZM153.184 68.32L157.024 58.976H203.232L207.072 68.32H153.184ZM262.613 93.536C254.677 93.536 247.594 91.616 241.365 87.776C235.221 83.936 230.357 78.56 226.773 71.648C223.274 64.6507 221.525 56.5013 221.525 47.2C221.525 37.8133 223.274 29.664 226.773 22.752C230.357 15.84 235.221 10.464 241.365 6.62399C247.594 2.784 254.677 0.863998 262.613 0.863998C271.232 0.863998 278.912 3.168 285.653 7.77599C292.394 12.2987 297.429 18.784 300.757 27.232L292.437 29.664L291.029 29.408C288.384 23.0933 284.629 18.3147 279.765 15.072C274.901 11.8293 269.312 10.208 262.997 10.208C256.938 10.208 251.52 11.7013 246.741 14.688C241.962 17.6747 238.208 21.9413 235.477 27.488C232.746 33.0347 231.381 39.6053 231.381 47.2C231.381 54.7947 232.746 61.3653 235.477 66.912C238.208 72.4587 241.962 76.7253 246.741 79.712C251.52 82.6987 256.938 84.192 262.997 84.192C269.312 84.192 274.901 82.5707 279.765 79.328C284.629 76 288.384 71.2213 291.029 64.992L292.437 64.736L300.757 67.168C297.429 75.616 292.394 82.144 285.653 86.752C278.912 91.2747 271.232 93.536 262.613 93.536ZM316.115 92V2.39999H325.715V92H316.115ZM321.107 92V82.656H372.563V92H321.107ZM321.107 51.296V41.952H370.003V51.296H321.107ZM321.107 11.744V2.39999H372.563V11.744H321.107ZM45.688 274L45.816 271.312L82.936 184.4H92.024V187.088L54.904 274H45.688ZM5.24 274V184.4H14.84V274H5.24ZM45.816 274L8.568 187.088V184.4H17.784L54.904 271.312V274H45.816ZM85.752 274V184.4H95.352V274H85.752ZM154.265 275.536C146.158 275.536 138.905 273.616 132.505 269.776C126.105 265.851 121.07 260.432 117.401 253.52C113.817 246.523 112.025 238.416 112.025 229.2C112.025 219.984 113.817 211.92 117.401 205.008C121.07 198.011 126.105 192.592 132.505 188.752C138.905 184.827 146.158 182.864 154.265 182.864C162.457 182.864 169.71 184.827 176.025 188.752C182.425 192.592 187.417 198.011 191.001 205.008C194.67 211.92 196.505 219.984 196.505 229.2C196.505 238.416 194.67 246.523 191.001 253.52C187.417 260.432 182.425 265.851 176.025 269.776C169.71 273.616 162.457 275.536 154.265 275.536ZM154.265 266.192C160.409 266.192 165.913 264.656 170.777 261.584C175.726 258.512 179.609 254.203 182.425 248.656C185.241 243.109 186.649 236.624 186.649 229.2C186.649 221.691 185.241 215.163 182.425 209.616C179.609 204.069 175.726 199.803 170.777 196.816C165.913 193.744 160.409 192.208 154.265 192.208C148.121 192.208 142.617 193.744 137.753 196.816C132.889 199.803 129.006 204.069 126.105 209.616C123.289 215.163 121.881 221.691 121.881 229.2C121.881 236.624 123.289 243.109 126.105 248.656C129.006 254.203 132.889 258.512 137.753 261.584C142.617 264.656 148.121 266.192 154.265 266.192ZM271.867 274L213.115 187.088V184.4H222.715L281.467 271.312V274H271.867ZM213.115 274V184.4H222.715V274H213.115ZM271.867 274V184.4H281.467V274H271.867ZM306.598 250.32V236.496L353.83 184.4H365.734V185.424L306.598 250.32ZM301.99 274V184.4H311.59V274H301.99ZM357.286 274L322.854 227.536L329.894 220.88L368.294 272.976V274H357.286ZM379.115 274V184.4H388.715V274H379.115Z" fill="black"/>
<path d="M19.448 90.208L19.863 89.2982L19.863 89.2982L19.448 90.208ZM7.288 80.992L6.51033 81.6208L6.51704 81.6289L7.288 80.992ZM0.76 67.04L0.520777 66.069L-0.416895 66.3001L-0.218717 67.2452L0.76 67.04ZM9.592 64.864L9.77089 63.8801L9.56045 63.8419L9.35278 63.893L9.592 64.864ZM11 65.12L11.9674 64.8666L11.8059 64.2501L11.1789 64.1361L11 65.12ZM15.992 74.848L15.2201 75.4837L15.2247 75.4894L15.2295 75.495L15.992 74.848ZM24.568 81.632L24.1117 82.5219L24.1208 82.5264L24.568 81.632ZM46.456 82.144L46.0679 81.2223L46.0591 81.2261L46.456 82.144ZM54.008 76.512L53.2113 75.9076L53.208 75.912L54.008 76.512ZM53.24 58.336L52.5459 59.0558L52.5526 59.0624L52.5596 59.0688L53.24 58.336ZM43.512 53.216L43.2447 54.1796L43.2506 54.1812L43.512 53.216ZM25.976 48.352L25.7028 49.314L25.7087 49.3156L25.976 48.352ZM10.232 39.136L9.47274 39.7868L9.47274 39.7868L10.232 39.136ZM8.44 12.384L7.61709 11.8158L7.6142 11.82L8.44 12.384ZM18.68 3.936L18.2542 3.03118L18.2542 3.03118L18.68 3.936ZM48.632 4.064L48.1987 4.96525L48.209 4.97022L48.2195 4.97495L48.632 4.064ZM59.768 12.768L58.9766 13.3795L58.9854 13.3905L59.768 12.768ZM65.656 25.952L65.8655 26.9298L66.8175 26.7258L66.6391 25.7687L65.656 25.952ZM56.696 27.872L56.5171 28.8559L56.7119 28.8913L56.9055 28.8498L56.696 27.872ZM55.288 27.616L54.3093 27.8212L54.4473 28.4795L55.1091 28.5999L55.288 27.616ZM47.736 14.944L48.3628 14.1648L48.3628 14.1648L47.736 14.944ZM20.088 14.176L19.4754 13.3855L19.4658 13.3932L20.088 14.176ZM18.68 33.504L17.9859 34.2238L17.9859 34.2238L18.68 33.504ZM29.048 38.88L28.7757 39.8422L28.7807 39.8436L29.048 38.88ZM46.584 43.744L46.3167 44.7076L46.3177 44.7079L46.584 43.744ZM61.688 52.576L60.9354 53.2345L60.9423 53.2423L61.688 52.576ZM63.096 81.248L62.2667 80.6891L62.264 80.6933L63.096 81.248ZM52.088 90.336L52.5018 91.2464L52.5091 91.243L52.088 90.336ZM35.576 92.536C29.8166 92.536 24.584 91.4516 19.863 89.2982L19.033 91.1178C24.04 93.4017 29.5595 94.536 35.576 94.536V92.536ZM19.863 89.2982C15.1297 87.1391 11.2003 84.1578 8.05896 80.3551L6.51704 81.6289C9.86099 85.6768 14.0383 88.8395 19.033 91.1178L19.863 89.2982ZM8.06563 80.3633C4.92743 76.4818 2.81714 71.978 1.73872 66.8348L-0.218717 67.2452C0.921526 72.6833 3.16323 77.4808 6.51037 81.6207L8.06563 80.3633ZM0.999223 68.011L9.83122 65.835L9.35278 63.893L0.520777 66.069L0.999223 68.011ZM9.41312 65.8479L10.8211 66.1039L11.1789 64.1361L9.77089 63.8801L9.41312 65.8479ZM10.0326 65.3734C11.0085 69.0995 12.74 72.4723 15.2201 75.4837L16.7639 74.2123C14.4653 71.4211 12.8688 68.3085 11.9674 64.8666L10.0326 65.3734ZM15.2295 75.495C17.705 78.4126 20.6682 80.7559 24.1117 82.5218L25.0243 80.7422C21.8118 79.0948 19.0576 76.9154 16.7545 74.201L15.2295 75.495ZM24.1208 82.5264C27.6739 84.303 31.4538 85.192 35.448 85.192V83.192C31.7622 83.192 28.2888 82.3744 25.0152 80.7376L24.1208 82.5264ZM35.448 85.192C39.7371 85.192 43.5463 84.4917 46.8529 83.0619L46.0591 81.2261C43.051 82.5269 39.5216 83.192 35.448 83.192V85.192ZM46.8441 83.0656C50.2208 81.6438 52.892 79.6666 54.808 77.112L53.208 75.912C51.54 78.1361 49.1765 79.9135 46.0679 81.2224L46.8441 83.0656ZM54.8047 77.1164C56.8163 74.4648 57.824 71.4357 57.824 68.064H55.824C55.824 71.007 54.9544 73.6099 53.2113 75.9076L54.8047 77.1164ZM57.824 68.064C57.824 63.6096 56.5714 60.0648 53.9205 57.6032L52.5596 59.0688C54.6872 61.0445 55.824 63.9851 55.824 68.064H57.824ZM53.9341 57.6162C51.3943 55.1671 47.9878 53.3922 43.7734 52.2508L43.2506 54.1812C47.2282 55.2585 50.307 56.8969 52.5459 59.0558L53.9341 57.6162ZM43.7793 52.2524L26.2433 47.3884L25.7087 49.3156L43.2447 54.1796L43.7793 52.2524ZM26.2492 47.39C19.4694 45.4649 14.4136 42.478 10.9913 38.4852L9.47274 39.7868C13.2184 44.1567 18.6586 47.3138 25.7028 49.314L26.2492 47.39ZM10.9913 38.4852C7.56118 34.4834 5.856 29.8924 5.856 24.672H3.856C3.856 30.3742 5.73483 35.4259 9.47274 39.7868L10.9913 38.4852ZM5.856 24.672C5.856 20.1573 7.00207 16.2627 9.2658 12.948L7.6142 11.82C5.09927 15.5026 3.856 19.8 3.856 24.672H5.856ZM9.2629 12.9522C11.627 9.5283 14.8964 6.82169 19.1058 4.84082L18.2542 3.03118C13.7596 5.14631 10.2023 8.07169 7.6171 11.8158L9.2629 12.9522ZM19.1058 4.84082C23.3037 2.86533 28.1462 1.864 33.656 1.864V-0.136002C27.9018 -0.136002 22.7603 0.910664 18.2542 3.03118L19.1058 4.84082ZM33.656 1.864C39.0718 1.864 43.9128 2.90471 48.1987 4.96525L49.0653 3.16274C44.4765 0.956616 39.3336 -0.136002 33.656 -0.136002V1.864ZM48.2195 4.97495C52.6005 6.95878 56.18 9.76011 58.9767 13.3794L60.5593 12.1566C57.5534 8.26655 53.7089 5.26521 49.0445 3.15304L48.2195 4.97495ZM58.9854 13.3905C61.8635 17.0088 63.7621 21.2501 64.6729 26.1353L66.6391 25.7687C65.6725 20.5846 63.6458 16.0366 60.5506 12.1455L58.9854 13.3905ZM65.4465 24.9742L56.4865 26.8942L56.9055 28.8498L65.8655 26.9298L65.4465 24.9742ZM56.8749 26.8881L55.4669 26.6321L55.1091 28.5999L56.5171 28.8559L56.8749 26.8881ZM56.2667 27.4108C55.1137 21.9116 52.4819 17.478 48.3628 14.1648L47.1092 15.7232C50.8408 18.7247 53.2437 22.739 54.3093 27.8212L56.2667 27.4108ZM48.3628 14.1648C44.2444 10.8522 39.3248 9.20799 33.656 9.20799V11.208C38.9099 11.208 43.3769 12.7211 47.1092 15.7232L48.3628 14.1648ZM33.656 9.20799C27.87 9.20799 23.111 10.568 19.4754 13.3856L20.7006 14.9664C23.8917 12.4933 28.178 11.208 33.656 11.208V9.20799ZM19.4658 13.3932C15.8872 16.2376 14.096 20.0732 14.096 24.8H16.096C16.096 20.6521 17.6328 17.405 20.7102 14.9588L19.4658 13.3932ZM14.096 24.8C14.096 28.5538 15.3896 31.7203 17.9859 34.2238L19.3741 32.7842C17.1918 30.6797 16.096 28.0436 16.096 24.8H14.096ZM17.9859 34.2238C20.5327 36.6797 24.1566 38.5349 28.7757 39.8422L29.3203 37.9178C24.8941 36.6651 21.6059 34.9363 19.3741 32.7842L17.9859 34.2238ZM28.7807 39.8436L46.3167 44.7076L46.8513 42.7804L29.3153 37.9164L28.7807 39.8436ZM46.3177 44.7079C52.6593 46.4602 57.5076 49.317 60.9354 53.2345L62.4406 51.9175C58.7004 47.643 53.4794 44.6118 46.8503 42.7801L46.3177 44.7079ZM60.9423 53.2423C64.344 57.049 66.064 61.7952 66.064 67.552H68.064C68.064 61.3621 66.2 56.1243 62.4337 51.9097L60.9423 53.2423ZM66.064 67.552C66.064 72.5789 64.7898 76.9453 62.2667 80.6891L63.9253 81.8069C66.6929 77.7 68.064 72.9358 68.064 67.552H66.064ZM62.264 80.6933C59.8197 84.3596 56.3029 87.2766 51.6669 89.429L52.5091 91.243C57.4304 88.9581 61.2523 85.8164 63.9281 81.8027L62.264 80.6933ZM51.6742 89.4256C47.1366 91.4882 41.7793 92.536 35.576 92.536V94.536C42.0021 94.536 47.6527 93.4505 52.5018 91.2464L51.6742 89.4256ZM132.252 28.896H131.252V29.896H132.252V28.896ZM127.644 16.48L126.937 17.1872L126.947 17.197L127.644 16.48ZM89.244 11.872H88.244V12.872H89.244V11.872ZM89.244 2.39999V1.39999H88.244V2.39999H89.244ZM135.068 9.56799L135.756 8.84269L135.756 8.84269L135.068 9.56799ZM142.62 28.896V29.896H143.62V28.896H142.62ZM83.74 92H82.74V93H83.74V92ZM83.74 2.39999V1.39999H82.74V2.39999H83.74ZM93.34 2.39999H94.34V1.39999H93.34V2.39999ZM93.34 92V93H94.34V92H93.34ZM89.244 55.392H88.244V56.392H89.244V55.392ZM89.244 45.92V44.92H88.244V45.92H89.244ZM127.644 41.44L128.341 42.1571L128.351 42.1471L127.644 41.44ZM132.252 28.896V27.896H131.252V28.896H132.252ZM142.62 28.896H143.62V27.896H142.62V28.896ZM135.068 48.224L135.756 48.9493L135.763 48.9432L135.068 48.224ZM133.252 28.896C133.252 23.4028 131.65 18.9803 128.341 15.763L126.947 17.197C129.782 19.953 131.252 23.8079 131.252 28.896H133.252ZM128.351 15.7729C125.049 12.4709 120.546 10.872 114.972 10.872V12.872C120.15 12.872 124.095 14.3451 126.937 17.1871L128.351 15.7729ZM114.972 10.872H89.244V12.872H114.972V10.872ZM90.244 11.872V2.39999H88.244V11.872H90.244ZM89.244 3.39999H114.972V1.39999H89.244V3.39999ZM114.972 3.39999C123.134 3.39999 129.567 5.7259 134.38 10.2933L135.756 8.84269C130.499 3.85276 123.535 1.39999 114.972 1.39999V3.39999ZM134.38 10.2933C139.182 14.8512 141.62 21.0135 141.62 28.896H143.62C143.62 20.5652 141.024 13.8421 135.756 8.84269L134.38 10.2933ZM142.62 27.896H132.252V29.896H142.62V27.896ZM84.74 92V2.39999H82.74V92H84.74ZM83.74 3.39999H93.34V1.39999H83.74V3.39999ZM92.34 2.39999V92H94.34V2.39999H92.34ZM93.34 91H83.74V93H93.34V91ZM90.244 55.392V45.92H88.244V55.392H90.244ZM89.244 46.92H114.972V44.92H89.244V46.92ZM114.972 46.92C120.539 46.92 125.038 45.3685 128.341 42.157L126.947 40.723C124.106 43.4848 120.157 44.92 114.972 44.92V46.92ZM128.351 42.1471C131.65 38.8481 133.252 34.3903 133.252 28.896H131.252C131.252 33.983 129.782 37.8879 126.937 40.7329L128.351 42.1471ZM132.252 29.896H142.62V27.896H132.252V29.896ZM141.62 28.896C141.62 36.6893 139.184 42.8573 134.373 47.5048L135.763 48.9432C141.022 43.8627 143.62 37.1454 143.62 28.896H141.62ZM134.38 47.4987C129.567 52.0661 123.134 54.392 114.972 54.392V56.392C123.535 56.392 130.499 53.9392 135.756 48.9493L134.38 47.4987ZM114.972 54.392H89.244V56.392H114.972V54.392ZM207.968 92L207.031 92.3492L207.273 93H207.968V92ZM175.584 5.088L174.635 5.40422L174.641 5.42079L174.647 5.43715L175.584 5.088ZM174.688 2.39999V1.39999H173.301L173.739 2.71622L174.688 2.39999ZM184.288 2.39999L185.221 2.0412L184.975 1.39999H184.288V2.39999ZM218.336 90.976H219.336V90.7904L219.269 90.6172L218.336 90.976ZM218.336 92V93H219.336V92H218.336ZM140.64 92H139.64V93H140.64V92ZM140.64 90.976L139.707 90.6172L139.64 90.7904V90.976H140.64ZM174.688 2.39999V1.39999H174.001L173.755 2.0412L174.688 2.39999ZM184.288 2.39999L185.237 2.71622L185.675 1.39999H184.288V2.39999ZM183.392 5.088L184.329 5.43715L184.335 5.42079L184.341 5.40422L183.392 5.088ZM151.008 92V93H151.703L151.945 92.3492L151.008 92ZM153.184 68.32L152.259 67.9399L151.692 69.32H153.184V68.32ZM157.024 58.976V57.976H156.354L156.099 58.5959L157.024 58.976ZM203.232 58.976L204.157 58.5959L203.902 57.976H203.232V58.976ZM207.072 68.32V69.32H208.564L207.997 67.9399L207.072 68.32ZM208.905 91.6508L176.521 4.73884L174.647 5.43715L207.031 92.3492L208.905 91.6508ZM176.533 4.77177L175.637 2.08377L173.739 2.71622L174.635 5.40422L176.533 4.77177ZM174.688 3.39999H184.288V1.39999H174.688V3.39999ZM183.355 2.75879L217.403 91.3348L219.269 90.6172L185.221 2.0412L183.355 2.75879ZM217.336 90.976V92H219.336V90.976H217.336ZM218.336 91H207.968V93H218.336V91ZM141.64 92V90.976H139.64V92H141.64ZM141.573 91.3348L175.621 2.75879L173.755 2.0412L139.707 90.6172L141.573 91.3348ZM174.688 3.39999H184.288V1.39999H174.688V3.39999ZM183.339 2.08377L182.443 4.77177L184.341 5.40422L185.237 2.71622L183.339 2.08377ZM182.455 4.73884L150.071 91.6508L151.945 92.3492L184.329 5.43715L182.455 4.73884ZM151.008 91H140.64V93H151.008V91ZM154.109 68.7001L157.949 59.3561L156.099 58.5959L152.259 67.9399L154.109 68.7001ZM157.024 59.976H203.232V57.976H157.024V59.976ZM202.307 59.3561L206.147 68.7001L207.997 67.9399L204.157 58.5959L202.307 59.3561ZM207.072 67.32H153.184V69.32H207.072V67.32ZM241.365 87.776L240.835 88.624L240.84 88.6273L241.365 87.776ZM226.773 71.648L225.879 72.0952L225.882 72.1018L225.885 72.1083L226.773 71.648ZM226.773 22.752L225.885 22.2917L225.881 22.3004L226.773 22.752ZM241.365 6.62399L240.84 5.77272L240.835 5.77599L241.365 6.62399ZM285.653 7.77599L285.089 8.60159L285.096 8.60642L285.653 7.77599ZM300.757 27.232L301.038 28.1918L302.089 27.8845L301.687 26.8655L300.757 27.232ZM292.437 29.664L292.258 30.6479L292.491 30.6902L292.718 30.6238L292.437 29.664ZM291.029 29.408L290.107 29.7944L290.316 30.2948L290.85 30.3919L291.029 29.408ZM279.765 15.072L279.21 15.904L279.21 15.904L279.765 15.072ZM235.477 27.488L234.58 27.0463L235.477 27.488ZM246.741 79.712L246.211 80.56L246.211 80.56L246.741 79.712ZM279.765 79.328L280.32 80.1601L280.33 80.1533L279.765 79.328ZM291.029 64.992L290.85 64.0081L290.319 64.1046L290.109 64.6011L291.029 64.992ZM292.437 64.736L292.718 63.7762L292.491 63.7098L292.258 63.7521L292.437 64.736ZM300.757 67.168L301.687 67.5345L302.089 66.5155L301.038 66.2082L300.757 67.168ZM285.653 86.752L286.21 87.5825L286.217 87.5776L285.653 86.752ZM262.613 92.536C254.846 92.536 247.948 90.6593 241.89 86.9247L240.84 88.6273C247.241 92.5727 254.508 94.536 262.613 94.536V92.536ZM241.895 86.928C235.914 83.19 231.169 77.953 227.661 71.1877L225.885 72.1083C229.545 79.167 234.528 84.682 240.835 88.624L241.895 86.928ZM227.667 71.2008C224.25 64.3662 222.525 56.3752 222.525 47.2H220.525C220.525 56.6275 222.299 64.9351 225.879 72.0952L227.667 71.2008ZM222.525 47.2C222.525 37.9374 224.251 29.949 227.665 23.2036L225.881 22.3004C222.298 29.379 220.525 37.6892 220.525 47.2H222.525ZM227.661 23.2123C231.169 16.4469 235.914 11.21 241.895 7.47199L240.835 5.77599C234.528 9.71795 229.545 15.233 225.885 22.2917L227.661 23.2123ZM241.89 7.47525C247.948 3.74068 254.846 1.864 262.613 1.864V-0.136002C254.508 -0.136002 247.241 1.82731 240.84 5.77273L241.89 7.47525ZM262.613 1.864C271.042 1.864 278.523 4.11368 285.089 8.60156L286.217 6.95043C279.3 2.22231 271.421 -0.136002 262.613 -0.136002V1.864ZM285.096 8.60642C291.649 13.0028 296.564 19.3162 299.827 27.5985L301.687 26.8655C298.294 18.2518 293.14 11.5946 286.21 6.94556L285.096 8.60642ZM300.476 26.2722L292.156 28.7042L292.718 30.6238L301.038 28.1918L300.476 26.2722ZM292.616 28.6801L291.208 28.4241L290.85 30.3919L292.258 30.6479L292.616 28.6801ZM291.951 29.0216C289.243 22.5572 285.374 17.6094 280.32 14.2399L279.21 15.904C283.884 19.0199 287.524 23.6295 290.107 29.7944L291.951 29.0216ZM280.32 14.2399C275.278 10.8789 269.493 9.20799 262.997 9.20799V11.208C269.131 11.208 274.524 12.7797 279.21 15.904L280.32 14.2399ZM262.997 9.20799C256.766 9.20799 251.161 10.7465 246.211 13.84L247.271 15.536C251.879 12.6562 257.111 11.208 262.997 11.208V9.20799ZM246.211 13.84C241.259 16.9348 237.384 21.3495 234.58 27.0463L236.374 27.9297C239.031 22.5332 242.665 18.4146 247.271 15.536L246.211 13.84ZM234.58 27.0463C231.768 32.7582 230.381 39.4865 230.381 47.2H232.381C232.381 39.7242 233.725 33.3111 236.374 27.9297L234.58 27.0463ZM230.381 47.2C230.381 54.9135 231.768 61.6418 234.58 67.3537L236.374 66.4703C233.725 61.0889 232.381 54.6758 232.381 47.2H230.381ZM234.58 67.3537C237.384 73.0505 241.259 77.4652 246.211 80.56L247.271 78.864C242.665 75.9854 239.031 71.8668 236.374 66.4703L234.58 67.3537ZM246.211 80.56C251.161 83.6535 256.766 85.192 262.997 85.192V83.192C257.111 83.192 251.879 81.7438 247.271 78.864L246.211 80.56ZM262.997 85.192C269.493 85.192 275.278 83.5211 280.32 80.16L279.21 78.4959C274.524 81.6203 269.131 83.192 262.997 83.192V85.192ZM280.33 80.1533C285.374 76.7022 289.241 71.7613 291.949 65.3829L290.109 64.6011C287.527 70.6814 283.884 75.2978 279.2 78.5027L280.33 80.1533ZM291.208 65.9759L292.616 65.7199L292.258 63.7521L290.85 64.0081L291.208 65.9759ZM292.156 65.6958L300.476 68.1278L301.038 66.2082L292.718 63.7762L292.156 65.6958ZM299.827 66.8015C296.563 75.085 291.647 81.4438 285.089 85.9264L286.217 87.5776C293.142 82.8442 298.295 76.147 301.687 67.5345L299.827 66.8015ZM285.096 85.9216C278.53 90.3267 271.046 92.536 262.613 92.536V94.536C271.417 94.536 279.294 92.2226 286.21 87.5824L285.096 85.9216ZM316.115 92H315.115V93H316.115V92ZM316.115 2.39999V1.39999H315.115V2.39999H316.115ZM325.715 2.39999H326.715V1.39999H325.715V2.39999ZM325.715 92V93H326.715V92H325.715ZM321.107 92H320.107V93H321.107V92ZM321.107 82.656V81.656H320.107V82.656H321.107ZM372.563 82.656H373.563V81.656H372.563V82.656ZM372.563 92V93H373.563V92H372.563ZM321.107 51.296H320.107V52.296H321.107V51.296ZM321.107 41.952V40.952H320.107V41.952H321.107ZM370.003 41.952H371.003V40.952H370.003V41.952ZM370.003 51.296V52.296H371.003V51.296H370.003ZM321.107 11.744H320.107V12.744H321.107V11.744ZM321.107 2.39999V1.39999H320.107V2.39999H321.107ZM372.563 2.39999H373.563V1.39999H372.563V2.39999ZM372.563 11.744V12.744H373.563V11.744H372.563ZM317.115 92V2.39999H315.115V92H317.115ZM316.115 3.39999H325.715V1.39999H316.115V3.39999ZM324.715 2.39999V92H326.715V2.39999H324.715ZM325.715 91H316.115V93H325.715V91ZM322.107 92V82.656H320.107V92H322.107ZM321.107 83.656H372.563V81.656H321.107V83.656ZM371.563 82.656V92H373.563V82.656H371.563ZM372.563 91H321.107V93H372.563V91ZM322.107 51.296V41.952H320.107V51.296H322.107ZM321.107 42.952H370.003V40.952H321.107V42.952ZM369.003 41.952V51.296H371.003V41.952H369.003ZM370.003 50.296H321.107V52.296H370.003V50.296ZM322.107 11.744V2.39999H320.107V11.744H322.107ZM321.107 3.39999H372.563V1.39999H321.107V3.39999ZM371.563 2.39999V11.744H373.563V2.39999H371.563ZM372.563 10.744H321.107V12.744H372.563V10.744ZM45.688 274L44.6891 273.952L44.6393 275H45.688V274ZM45.816 271.312L44.8964 270.919L44.8257 271.085L44.8171 271.264L45.816 271.312ZM82.936 184.4V183.4H82.2757L82.0164 184.007L82.936 184.4ZM92.024 184.4H93.024V183.4H92.024V184.4ZM92.024 187.088L92.9436 187.481L93.024 187.293V187.088H92.024ZM54.904 274V275H55.5643L55.8236 274.393L54.904 274ZM5.24 274H4.24V275H5.24V274ZM5.24 184.4V183.4H4.24V184.4H5.24ZM14.84 184.4H15.84V183.4H14.84V184.4ZM14.84 274V275H15.84V274H14.84ZM45.816 274L44.8969 274.394L45.1566 275H45.816V274ZM8.568 187.088H7.568V187.293L7.64886 187.482L8.568 187.088ZM8.568 184.4V183.4H7.568V184.4H8.568ZM17.784 184.4L18.7036 184.007L18.4443 183.4H17.784V184.4ZM54.904 271.312H55.904V271.107L55.8236 270.919L54.904 271.312ZM54.904 274V275H55.904V274H54.904ZM85.752 274H84.752V275H85.752V274ZM85.752 184.4V183.4H84.752V184.4H85.752ZM95.352 184.4H96.352V183.4H95.352V184.4ZM95.352 274V275H96.352V274H95.352ZM46.6869 274.048L46.8149 271.36L44.8171 271.264L44.6891 273.952L46.6869 274.048ZM46.7356 271.705L83.8556 184.793L82.0164 184.007L44.8964 270.919L46.7356 271.705ZM82.936 185.4H92.024V183.4H82.936V185.4ZM91.024 184.4V187.088H93.024V184.4H91.024ZM91.1044 186.695L53.9844 273.607L55.8236 274.393L92.9436 187.481L91.1044 186.695ZM54.904 273H45.688V275H54.904V273ZM6.24 274V184.4H4.24V274H6.24ZM5.24 185.4H14.84V183.4H5.24V185.4ZM13.84 184.4V274H15.84V184.4H13.84ZM14.84 273H5.24V275H14.84V273ZM46.7351 273.606L9.48715 186.694L7.64886 187.482L44.8969 274.394L46.7351 273.606ZM9.568 187.088V184.4H7.568V187.088H9.568ZM8.568 185.4H17.784V183.4H8.568V185.4ZM16.8644 184.793L53.9844 271.705L55.8236 270.919L18.7036 184.007L16.8644 184.793ZM53.904 271.312V274H55.904V271.312H53.904ZM54.904 273H45.816V275H54.904V273ZM86.752 274V184.4H84.752V274H86.752ZM85.752 185.4H95.352V183.4H85.752V185.4ZM94.352 184.4V274H96.352V184.4H94.352ZM95.352 273H85.752V275H95.352V273ZM132.505 269.776L131.982 270.628L131.991 270.633L132.505 269.776ZM117.401 253.52L116.511 253.976L116.514 253.982L116.518 253.989L117.401 253.52ZM117.401 205.008L116.515 204.544L116.513 204.548L117.401 205.008ZM132.505 188.752L133.02 189.61L133.028 189.604L132.505 188.752ZM176.025 188.752L175.497 189.601L175.504 189.605L175.511 189.609L176.025 188.752ZM191.001 205.008L190.111 205.464L190.114 205.47L190.118 205.477L191.001 205.008ZM191.001 253.52L190.115 253.056L190.113 253.06L191.001 253.52ZM176.025 269.776L176.545 270.63L176.548 270.628L176.025 269.776ZM170.777 261.584L170.25 260.734L170.243 260.739L170.777 261.584ZM182.425 248.656L181.533 248.203L181.533 248.203L182.425 248.656ZM170.777 196.816L170.243 197.661L170.252 197.667L170.26 197.672L170.777 196.816ZM137.753 196.816L138.276 197.668L138.287 197.661L137.753 196.816ZM126.105 209.616L125.219 209.152L125.213 209.163L126.105 209.616ZM126.105 248.656L125.213 249.109L125.219 249.119L126.105 248.656ZM154.265 274.536C146.323 274.536 139.251 272.657 133.019 268.919L131.991 270.633C138.559 274.575 145.993 276.536 154.265 276.536V274.536ZM133.028 268.924C126.787 265.096 121.874 259.812 118.284 253.051L116.518 253.989C120.267 261.052 125.423 266.606 131.982 270.628L133.028 268.924ZM118.291 253.064C114.791 246.23 113.025 238.285 113.025 229.2H111.025C111.025 238.547 112.843 246.815 116.511 253.976L118.291 253.064ZM113.025 229.2C113.025 220.115 114.791 212.214 118.289 205.468L116.513 204.548C112.843 211.626 111.025 219.853 111.025 229.2H113.025ZM118.287 205.472C121.876 198.628 126.786 193.349 133.019 189.609L131.991 187.895C125.424 191.835 120.265 197.394 116.515 204.544L118.287 205.472ZM133.028 189.604C139.258 185.783 146.328 183.864 154.265 183.864V181.864C145.989 181.864 138.552 183.87 131.982 187.9L133.028 189.604ZM154.265 183.864C162.29 183.864 169.357 185.784 175.497 189.601L176.553 187.903C170.064 183.869 162.624 181.864 154.265 181.864V183.864ZM175.511 189.609C181.742 193.348 186.607 198.624 190.111 205.464L191.891 204.552C188.227 197.398 183.108 191.836 176.539 187.895L175.511 189.609ZM190.118 205.477C193.698 212.221 195.505 220.118 195.505 229.2H197.505C197.505 219.85 195.643 211.619 191.884 204.539L190.118 205.477ZM195.505 229.2C195.505 238.281 193.698 246.224 190.115 253.056L191.887 253.984C195.643 246.822 197.505 238.551 197.505 229.2H195.505ZM190.113 253.06C186.61 259.816 181.741 265.097 175.502 268.924L176.548 270.628C183.109 266.604 188.224 261.048 191.889 253.98L190.113 253.06ZM175.505 268.922C169.364 272.656 162.294 274.536 154.265 274.536V276.536C162.62 276.536 170.057 274.576 176.545 270.63L175.505 268.922ZM154.265 267.192C160.585 267.192 166.276 265.609 171.311 262.429L170.243 260.739C165.55 263.703 160.233 265.192 154.265 265.192V267.192ZM171.304 262.434C176.42 259.259 180.424 254.807 183.317 249.109L181.533 248.203C178.794 253.598 175.033 257.765 170.25 260.734L171.304 262.434ZM183.317 249.109C186.216 243.397 187.649 236.751 187.649 229.2H185.649C185.649 236.497 184.266 242.822 181.533 248.203L183.317 249.109ZM187.649 229.2C187.649 221.566 186.217 214.876 183.317 209.163L181.533 210.069C184.265 215.449 185.649 221.816 185.649 229.2H187.649ZM183.317 209.163C180.423 203.463 176.416 199.051 171.294 195.96L170.26 197.672C175.037 200.555 178.795 204.676 181.533 210.069L183.317 209.163ZM171.311 195.971C166.276 192.791 160.585 191.208 154.265 191.208V193.208C160.233 193.208 165.55 194.697 170.243 197.661L171.311 195.971ZM154.265 191.208C147.945 191.208 142.254 192.791 137.219 195.971L138.287 197.661C142.98 194.697 148.297 193.208 154.265 193.208V191.208ZM137.23 195.964C132.197 199.054 128.196 203.462 125.219 209.152L126.991 210.079C129.817 204.677 133.581 200.551 138.276 197.668L137.23 195.964ZM125.213 209.163C122.313 214.876 120.881 221.566 120.881 229.2H122.881C122.881 221.816 124.265 215.449 126.997 210.069L125.213 209.163ZM120.881 229.2C120.881 236.751 122.314 243.397 125.213 249.109L126.997 248.203C124.264 242.822 122.881 236.497 122.881 229.2H120.881ZM125.219 249.119C128.194 254.808 132.193 259.255 137.219 262.429L138.287 260.739C133.585 257.769 129.818 253.597 126.991 248.193L125.219 249.119ZM137.219 262.429C142.254 265.609 147.945 267.192 154.265 267.192V265.192C148.297 265.192 142.98 263.703 138.287 260.739L137.219 262.429ZM271.867 274L271.039 274.56L271.336 275H271.867V274ZM213.115 187.088H212.115V187.394L212.287 187.648L213.115 187.088ZM213.115 184.4V183.4H212.115V184.4H213.115ZM222.715 184.4L223.543 183.84L223.246 183.4H222.715V184.4ZM281.467 271.312H282.467V271.006L282.295 270.752L281.467 271.312ZM281.467 274V275H282.467V274H281.467ZM213.115 274H212.115V275H213.115V274ZM213.115 184.4V183.4H212.115V184.4H213.115ZM222.715 184.4H223.715V183.4H222.715V184.4ZM222.715 274V275H223.715V274H222.715ZM271.867 274H270.867V275H271.867V274ZM271.867 184.4V183.4H270.867V184.4H271.867ZM281.467 184.4H282.467V183.4H281.467V184.4ZM281.467 274V275H282.467V274H281.467ZM272.695 273.44L213.943 186.528L212.287 187.648L271.039 274.56L272.695 273.44ZM214.115 187.088V184.4H212.115V187.088H214.115ZM213.115 185.4H222.715V183.4H213.115V185.4ZM221.887 184.96L280.639 271.872L282.295 270.752L223.543 183.84L221.887 184.96ZM280.467 271.312V274H282.467V271.312H280.467ZM281.467 273H271.867V275H281.467V273ZM214.115 274V184.4H212.115V274H214.115ZM213.115 185.4H222.715V183.4H213.115V185.4ZM221.715 184.4V274H223.715V184.4H221.715ZM222.715 273H213.115V275H222.715V273ZM272.867 274V184.4H270.867V274H272.867ZM271.867 185.4H281.467V183.4H271.867V185.4ZM280.467 184.4V274H282.467V184.4H280.467ZM281.467 273H271.867V275H281.467V273ZM306.598 250.32H305.598V252.902L307.337 250.994L306.598 250.32ZM306.598 236.496L305.857 235.824L305.598 236.11V236.496H306.598ZM353.83 184.4V183.4H353.387L353.089 183.728L353.83 184.4ZM365.734 184.4H366.734V183.4H365.734V184.4ZM365.734 185.424L366.473 186.098L366.734 185.811V185.424H365.734ZM301.99 274H300.99V275H301.99V274ZM301.99 184.4V183.4H300.99V184.4H301.99ZM311.59 184.4H312.59V183.4H311.59V184.4ZM311.59 274V275H312.59V274H311.59ZM357.286 274L356.483 274.595L356.782 275H357.286V274ZM322.854 227.536L322.167 226.809L321.522 227.419L322.051 228.131L322.854 227.536ZM329.894 220.88L330.699 220.287L330.028 219.377L329.207 220.153L329.894 220.88ZM368.294 272.976H369.294V272.647L369.099 272.383L368.294 272.976ZM368.294 274V275H369.294V274H368.294ZM307.598 250.32V236.496H305.598V250.32H307.598ZM307.339 237.168L354.571 185.072L353.089 183.728L305.857 235.824L307.339 237.168ZM353.83 185.4H365.734V183.4H353.83V185.4ZM364.734 184.4V185.424H366.734V184.4H364.734ZM364.995 184.75L305.859 249.646L307.337 250.994L366.473 186.098L364.995 184.75ZM302.99 274V184.4H300.99V274H302.99ZM301.99 185.4H311.59V183.4H301.99V185.4ZM310.59 184.4V274H312.59V184.4H310.59ZM311.59 273H301.99V275H311.59V273ZM358.089 273.405L323.657 226.941L322.051 228.131L356.483 274.595L358.089 273.405ZM323.541 228.263L330.581 221.607L329.207 220.153L322.167 226.809L323.541 228.263ZM329.089 221.473L367.489 273.569L369.099 272.383L330.699 220.287L329.089 221.473ZM367.294 272.976V274H369.294V272.976H367.294ZM368.294 273H357.286V275H368.294V273ZM379.115 274H378.115V275H379.115V274ZM379.115 184.4V183.4H378.115V184.4H379.115ZM388.715 184.4H389.715V183.4H388.715V184.4ZM388.715 274V275H389.715V274H388.715ZM380.115 274V184.4H378.115V274H380.115ZM379.115 185.4H388.715V183.4H379.115V185.4ZM387.715 184.4V274H389.715V184.4H387.715ZM388.715 273H379.115V275H388.715V273Z" fill="black" mask="url(#path-1-outside-1_1_8)"/>
</svg>
