<svg width="292" height="207" viewBox="0 0 292 207" fill="none" xmlns="http://www.w3.org/2000/svg">
<mask id="path-1-outside-1_1_8" maskUnits="userSpaceOnUse" x="-1" y="-1" width="294" height="209" fill="black">
<rect fill="white" x="-1" y="-1" width="294" height="209"/>
<path d="M26.432 70.152C22.016 70.152 17.984 69.32 14.336 67.656C10.688 65.992 7.648 63.688 5.216 60.744C2.784 57.736 1.152 54.248 0.32 50.28L6.944 48.648L8 48.84C8.704 51.528 9.952 53.96 11.744 56.136C13.536 58.248 15.68 59.944 18.176 61.224C20.736 62.504 23.456 63.144 26.336 63.144C29.472 63.144 32.224 62.632 34.592 61.608C37.024 60.584 38.912 59.176 40.256 57.384C41.664 55.528 42.368 53.416 42.368 51.048C42.368 47.848 41.472 45.416 39.68 43.752C37.888 42.024 35.456 40.744 32.384 39.912L19.232 36.264C14.048 34.792 10.112 32.488 7.424 29.352C4.736 26.216 3.392 22.6 3.392 18.504C3.392 14.984 4.288 11.912 6.08 9.288C7.936 6.6 10.496 4.488 13.76 2.952C17.024 1.416 20.768 0.647999 24.992 0.647999C29.152 0.647999 32.896 1.448 36.224 3.048C39.616 4.584 42.4 6.76 44.576 9.576C46.816 12.392 48.288 15.688 48.992 19.464L42.272 20.904L41.216 20.712C40.384 16.744 38.496 13.576 35.552 11.208C32.608 8.83999 29.088 7.65599 24.992 7.65599C20.768 7.65599 17.376 8.64799 14.816 10.632C12.32 12.616 11.072 15.272 11.072 18.6C11.072 21.224 11.968 23.4 13.76 25.128C15.552 26.856 18.144 28.2 21.536 29.16L34.688 32.808C39.552 34.152 43.328 36.36 46.016 39.432C48.704 42.44 50.048 46.184 50.048 50.664C50.048 54.568 49.056 57.992 47.072 60.936C45.152 63.816 42.4 66.088 38.816 67.752C35.296 69.352 31.168 70.152 26.432 70.152ZM98.939 21.672C98.939 17.704 97.787 14.6 95.483 12.36C93.179 10.056 90.011 8.904 85.979 8.904H66.683V1.8H85.979C92.251 1.8 97.275 3.592 101.051 7.17599C104.827 10.76 106.715 15.592 106.715 21.672H98.939ZM62.555 69V1.8H69.755V69H62.555ZM66.683 41.544V34.44H85.979C90.011 34.44 93.179 33.32 95.483 31.08C97.787 28.776 98.939 25.64 98.939 21.672H106.715C106.715 27.688 104.827 32.52 101.051 36.168C97.275 39.752 92.251 41.544 85.979 41.544H66.683ZM155.726 69L131.438 3.816L130.766 1.8H137.966L163.502 68.232V69H155.726ZM105.23 69V68.232L130.766 1.8H137.966L137.294 3.816L113.006 69H105.23ZM114.638 51.24L117.518 44.232H152.174L155.054 51.24H114.638ZM196.71 70.152C190.758 70.152 185.446 68.712 180.774 65.832C176.166 62.952 172.518 58.92 169.83 53.736C167.206 48.488 165.894 42.376 165.894 35.4C165.894 28.36 167.206 22.248 169.83 17.064C172.518 11.88 176.166 7.848 180.774 4.96799C185.446 2.088 190.758 0.647999 196.71 0.647999C203.174 0.647999 208.934 2.376 213.99 5.832C219.046 9.224 222.822 14.088 225.318 20.424L219.078 22.248L218.022 22.056C216.038 17.32 213.222 13.736 209.574 11.304C205.926 8.872 201.734 7.65599 196.998 7.65599C192.454 7.65599 188.39 8.776 184.806 11.016C181.222 13.256 178.406 16.456 176.358 20.616C174.31 24.776 173.286 29.704 173.286 35.4C173.286 41.096 174.31 46.024 176.358 50.184C178.406 54.344 181.222 57.544 184.806 59.784C188.39 62.024 192.454 63.144 196.998 63.144C201.734 63.144 205.926 61.928 209.574 59.496C213.222 57 216.038 53.416 218.022 48.744L219.078 48.552L225.318 50.376C222.822 56.712 219.046 61.608 213.99 65.064C208.934 68.456 203.174 70.152 196.71 70.152ZM236.836 69V1.8H244.036V69H236.836ZM240.58 69V61.992H279.172V69H240.58ZM240.58 38.472V31.464H277.252V38.472H240.58ZM240.58 8.808V1.8H279.172V8.808H240.58ZM34.016 205L34.112 202.984L61.952 137.8H68.768V139.816L40.928 205H34.016ZM3.68 205V137.8H10.88V205H3.68ZM34.112 205L6.176 139.816V137.8H13.088L40.928 202.984V205H34.112ZM64.064 205V137.8H71.264V205H64.064ZM115.449 206.152C109.369 206.152 103.929 204.712 99.1288 201.832C94.3288 198.888 90.5528 194.824 87.8008 189.64C85.1128 184.392 83.7688 178.312 83.7688 171.4C83.7688 164.488 85.1128 158.44 87.8008 153.256C90.5528 148.008 94.3288 143.944 99.1288 141.064C103.929 138.12 109.369 136.648 115.449 136.648C121.593 136.648 127.033 138.12 131.769 141.064C136.569 143.944 140.313 148.008 143.001 153.256C145.753 158.44 147.129 164.488 147.129 171.4C147.129 178.312 145.753 184.392 143.001 189.64C140.313 194.824 136.569 198.888 131.769 201.832C127.033 204.712 121.593 206.152 115.449 206.152ZM115.449 199.144C120.057 199.144 124.185 197.992 127.833 195.688C131.545 193.384 134.457 190.152 136.569 185.992C138.681 181.832 139.737 176.968 139.737 171.4C139.737 165.768 138.681 160.872 136.569 156.712C134.457 152.552 131.545 149.352 127.833 147.112C124.185 144.808 120.057 143.656 115.449 143.656C110.841 143.656 106.713 144.808 103.065 147.112C99.4168 149.352 96.5048 152.552 94.3288 156.712C92.2168 160.872 91.1608 165.768 91.1608 171.4C91.1608 176.968 92.2168 181.832 94.3288 185.992C96.5048 190.152 99.4168 193.384 103.065 195.688C106.713 197.992 110.841 199.144 115.449 199.144ZM203.65 205L159.586 139.816V137.8H166.786L210.85 202.984V205H203.65ZM159.586 205V137.8H166.786V205H159.586ZM203.65 205V137.8H210.85V205H203.65ZM229.699 187.24V176.872L265.123 137.8H274.051V138.568L229.699 187.24ZM226.243 205V137.8H233.443V205H226.243ZM267.715 205L241.891 170.152L247.171 165.16L275.971 204.232V205H267.715ZM284.086 205V137.8H291.286V205H284.086Z"/>
</mask>
<path d="M26.432 70.152C22.016 70.152 17.984 69.32 14.336 67.656C10.688 65.992 7.648 63.688 5.216 60.744C2.784 57.736 1.152 54.248 0.32 50.28L6.944 48.648L8 48.84C8.704 51.528 9.952 53.96 11.744 56.136C13.536 58.248 15.68 59.944 18.176 61.224C20.736 62.504 23.456 63.144 26.336 63.144C29.472 63.144 32.224 62.632 34.592 61.608C37.024 60.584 38.912 59.176 40.256 57.384C41.664 55.528 42.368 53.416 42.368 51.048C42.368 47.848 41.472 45.416 39.68 43.752C37.888 42.024 35.456 40.744 32.384 39.912L19.232 36.264C14.048 34.792 10.112 32.488 7.424 29.352C4.736 26.216 3.392 22.6 3.392 18.504C3.392 14.984 4.288 11.912 6.08 9.288C7.936 6.6 10.496 4.488 13.76 2.952C17.024 1.416 20.768 0.647999 24.992 0.647999C29.152 0.647999 32.896 1.448 36.224 3.048C39.616 4.584 42.4 6.76 44.576 9.576C46.816 12.392 48.288 15.688 48.992 19.464L42.272 20.904L41.216 20.712C40.384 16.744 38.496 13.576 35.552 11.208C32.608 8.83999 29.088 7.65599 24.992 7.65599C20.768 7.65599 17.376 8.64799 14.816 10.632C12.32 12.616 11.072 15.272 11.072 18.6C11.072 21.224 11.968 23.4 13.76 25.128C15.552 26.856 18.144 28.2 21.536 29.16L34.688 32.808C39.552 34.152 43.328 36.36 46.016 39.432C48.704 42.44 50.048 46.184 50.048 50.664C50.048 54.568 49.056 57.992 47.072 60.936C45.152 63.816 42.4 66.088 38.816 67.752C35.296 69.352 31.168 70.152 26.432 70.152ZM98.939 21.672C98.939 17.704 97.787 14.6 95.483 12.36C93.179 10.056 90.011 8.904 85.979 8.904H66.683V1.8H85.979C92.251 1.8 97.275 3.592 101.051 7.17599C104.827 10.76 106.715 15.592 106.715 21.672H98.939ZM62.555 69V1.8H69.755V69H62.555ZM66.683 41.544V34.44H85.979C90.011 34.44 93.179 33.32 95.483 31.08C97.787 28.776 98.939 25.64 98.939 21.672H106.715C106.715 27.688 104.827 32.52 101.051 36.168C97.275 39.752 92.251 41.544 85.979 41.544H66.683ZM155.726 69L131.438 3.816L130.766 1.8H137.966L163.502 68.232V69H155.726ZM105.23 69V68.232L130.766 1.8H137.966L137.294 3.816L113.006 69H105.23ZM114.638 51.24L117.518 44.232H152.174L155.054 51.24H114.638ZM196.71 70.152C190.758 70.152 185.446 68.712 180.774 65.832C176.166 62.952 172.518 58.92 169.83 53.736C167.206 48.488 165.894 42.376 165.894 35.4C165.894 28.36 167.206 22.248 169.83 17.064C172.518 11.88 176.166 7.848 180.774 4.96799C185.446 2.088 190.758 0.647999 196.71 0.647999C203.174 0.647999 208.934 2.376 213.99 5.832C219.046 9.224 222.822 14.088 225.318 20.424L219.078 22.248L218.022 22.056C216.038 17.32 213.222 13.736 209.574 11.304C205.926 8.872 201.734 7.65599 196.998 7.65599C192.454 7.65599 188.39 8.776 184.806 11.016C181.222 13.256 178.406 16.456 176.358 20.616C174.31 24.776 173.286 29.704 173.286 35.4C173.286 41.096 174.31 46.024 176.358 50.184C178.406 54.344 181.222 57.544 184.806 59.784C188.39 62.024 192.454 63.144 196.998 63.144C201.734 63.144 205.926 61.928 209.574 59.496C213.222 57 216.038 53.416 218.022 48.744L219.078 48.552L225.318 50.376C222.822 56.712 219.046 61.608 213.99 65.064C208.934 68.456 203.174 70.152 196.71 70.152ZM236.836 69V1.8H244.036V69H236.836ZM240.58 69V61.992H279.172V69H240.58ZM240.58 38.472V31.464H277.252V38.472H240.58ZM240.58 8.808V1.8H279.172V8.808H240.58ZM34.016 205L34.112 202.984L61.952 137.8H68.768V139.816L40.928 205H34.016ZM3.68 205V137.8H10.88V205H3.68ZM34.112 205L6.176 139.816V137.8H13.088L40.928 202.984V205H34.112ZM64.064 205V137.8H71.264V205H64.064ZM115.449 206.152C109.369 206.152 103.929 204.712 99.1288 201.832C94.3288 198.888 90.5528 194.824 87.8008 189.64C85.1128 184.392 83.7688 178.312 83.7688 171.4C83.7688 164.488 85.1128 158.44 87.8008 153.256C90.5528 148.008 94.3288 143.944 99.1288 141.064C103.929 138.12 109.369 136.648 115.449 136.648C121.593 136.648 127.033 138.12 131.769 141.064C136.569 143.944 140.313 148.008 143.001 153.256C145.753 158.44 147.129 164.488 147.129 171.4C147.129 178.312 145.753 184.392 143.001 189.64C140.313 194.824 136.569 198.888 131.769 201.832C127.033 204.712 121.593 206.152 115.449 206.152ZM115.449 199.144C120.057 199.144 124.185 197.992 127.833 195.688C131.545 193.384 134.457 190.152 136.569 185.992C138.681 181.832 139.737 176.968 139.737 171.4C139.737 165.768 138.681 160.872 136.569 156.712C134.457 152.552 131.545 149.352 127.833 147.112C124.185 144.808 120.057 143.656 115.449 143.656C110.841 143.656 106.713 144.808 103.065 147.112C99.4168 149.352 96.5048 152.552 94.3288 156.712C92.2168 160.872 91.1608 165.768 91.1608 171.4C91.1608 176.968 92.2168 181.832 94.3288 185.992C96.5048 190.152 99.4168 193.384 103.065 195.688C106.713 197.992 110.841 199.144 115.449 199.144ZM203.65 205L159.586 139.816V137.8H166.786L210.85 202.984V205H203.65ZM159.586 205V137.8H166.786V205H159.586ZM203.65 205V137.8H210.85V205H203.65ZM229.699 187.24V176.872L265.123 137.8H274.051V138.568L229.699 187.24ZM226.243 205V137.8H233.443V205H226.243ZM267.715 205L241.891 170.152L247.171 165.16L275.971 204.232V205H267.715ZM284.086 205V137.8H291.286V205H284.086Z" fill="black"/>
<path d="M14.336 67.656L14.751 66.7462L14.751 66.7462L14.336 67.656ZM5.216 60.744L4.43833 61.3728L4.44504 61.3809L5.216 60.744ZM0.32 50.28L0.080777 49.309L-0.856895 49.5401L-0.658717 50.4852L0.32 50.28ZM6.944 48.648L7.12289 47.6641L6.91245 47.6259L6.70478 47.677L6.944 48.648ZM8 48.84L8.96737 48.5866L8.80591 47.9701L8.17889 47.8561L8 48.84ZM11.744 56.136L10.9721 56.7717L10.9767 56.7774L10.9815 56.783L11.744 56.136ZM18.176 61.224L17.7197 62.1139L17.7288 62.1184L18.176 61.224ZM34.592 61.608L34.2039 60.6863L34.1951 60.6901L34.592 61.608ZM40.256 57.384L39.4593 56.7796L39.456 56.784L40.256 57.384ZM39.68 43.752L38.9859 44.4718L38.9926 44.4784L38.9996 44.4848L39.68 43.752ZM32.384 39.912L32.1167 40.8756L32.1226 40.8772L32.384 39.912ZM19.232 36.264L18.9588 37.226L18.9647 37.2276L19.232 36.264ZM7.424 29.352L6.66474 30.0028L6.66474 30.0028L7.424 29.352ZM6.08 9.288L5.25709 8.7198L5.2542 8.72403L6.08 9.288ZM13.76 2.952L13.3342 2.04718L13.3342 2.04718L13.76 2.952ZM36.224 3.048L35.7907 3.94925L35.801 3.95422L35.8115 3.95895L36.224 3.048ZM44.576 9.576L43.7846 10.1875L43.7934 10.1985L44.576 9.576ZM48.992 19.464L49.2015 20.4418L50.1535 20.2378L49.9751 19.2807L48.992 19.464ZM42.272 20.904L42.0931 21.8879L42.2879 21.9233L42.4815 21.8818L42.272 20.904ZM41.216 20.712L40.2373 20.9172L40.3753 21.5755L41.0371 21.6959L41.216 20.712ZM35.552 11.208L36.1788 10.4288L36.1788 10.4288L35.552 11.208ZM14.816 10.632L14.2034 9.84152L14.1938 9.84917L14.816 10.632ZM13.76 25.128L13.0659 25.8478L13.0659 25.8478L13.76 25.128ZM21.536 29.16L21.2637 30.1222L21.2687 30.1236L21.536 29.16ZM34.688 32.808L34.4207 33.7716L34.4217 33.7719L34.688 32.808ZM46.016 39.432L45.2634 40.0905L45.2703 40.0983L46.016 39.432ZM47.072 60.936L46.2427 60.3771L46.2399 60.3813L47.072 60.936ZM38.816 67.752L39.2298 68.6624L39.2371 68.659L38.816 67.752ZM26.432 69.152C22.1446 69.152 18.256 68.345 14.751 66.7462L13.921 68.5658C17.712 70.295 21.8875 71.152 26.432 71.152V69.152ZM14.751 66.7462C11.2337 65.1418 8.31768 62.9285 5.98696 60.1071L4.44504 61.3809C6.97832 64.4475 10.1423 66.8422 13.921 68.5658L14.751 66.7462ZM5.99363 60.1153C3.6661 57.2365 2.09981 53.8954 1.29872 50.0748L-0.658717 50.4852C0.204193 54.6006 1.9019 58.2355 4.43837 61.3727L5.99363 60.1153ZM0.559223 51.251L7.18322 49.619L6.70478 47.677L0.080777 49.309L0.559223 51.251ZM6.76511 49.6319L7.82111 49.8239L8.17889 47.8561L7.12289 47.6641L6.76511 49.6319ZM7.03263 49.0934C7.77387 51.9235 9.08938 54.4856 10.9721 56.7717L12.5159 55.5003C10.8146 53.4344 9.63414 51.1325 8.96737 48.5866L7.03263 49.0934ZM10.9815 56.783C12.8597 58.9966 15.1082 60.7746 17.7197 62.1138L18.6323 60.3342C16.2518 59.1134 14.2123 57.4994 12.5065 55.489L10.9815 56.783ZM17.7288 62.1184C20.4285 63.4683 23.3018 64.144 26.336 64.144V62.144C23.6102 62.144 21.0435 61.5397 18.6232 60.3296L17.7288 62.1184ZM26.336 64.144C29.5798 64.144 32.4717 63.6144 34.9889 62.5259L34.1951 60.6901C31.9763 61.6496 29.3642 62.144 26.336 62.144V64.144ZM34.9801 62.5296C37.5461 61.4492 39.588 59.9413 41.056 57.984L39.456 56.784C38.236 58.4107 36.5019 59.7188 34.2039 60.6864L34.9801 62.5296ZM41.0527 57.9884C42.5949 55.9554 43.368 53.6304 43.368 51.048H41.368C41.368 53.2016 40.7331 55.1006 39.4593 56.7796L41.0527 57.9884ZM43.368 51.048C43.368 47.6602 42.4141 44.9262 40.3605 43.0192L38.9996 44.4848C40.5299 45.9058 41.368 48.0358 41.368 51.048H43.368ZM40.3741 43.0322C38.4317 41.1591 35.8358 39.8108 32.6454 38.9468L32.1226 40.8772C35.0762 41.6772 37.3443 42.8889 38.9859 44.4718L40.3741 43.0322ZM32.6513 38.9484L19.4993 35.3004L18.9647 37.2276L32.1167 40.8756L32.6513 38.9484ZM19.5052 35.302C14.4534 33.8676 10.7096 31.6486 8.18326 28.7012L6.66474 30.0028C9.51438 33.3274 13.6426 35.7164 18.9588 37.226L19.5052 35.302ZM8.18326 28.7012C5.64918 25.7448 4.392 22.3591 4.392 18.504H2.392C2.392 22.8409 3.82282 26.6872 6.66474 30.0028L8.18326 28.7012ZM4.392 18.504C4.392 15.1626 5.2394 12.292 6.9058 9.85196L5.2542 8.72403C3.3366 11.5319 2.392 14.8054 2.392 18.504H4.392ZM6.9029 9.85619C8.64834 7.3283 11.0644 5.32569 14.1858 3.85682L13.3342 2.04718C9.92755 3.65031 7.22366 5.87169 5.2571 8.71981L6.9029 9.85619ZM14.1858 3.85682C17.2957 2.39333 20.8902 1.648 24.992 1.648V-0.352001C20.6458 -0.352001 16.7523 0.438664 13.3342 2.04718L14.1858 3.85682ZM24.992 1.648C29.0211 1.648 32.6141 2.42205 35.7907 3.94925L36.6573 2.14674C33.1779 0.47395 29.2829 -0.352001 24.992 -0.352001V1.648ZM35.8115 3.95895C39.0618 5.43078 41.7133 7.50677 43.7847 10.1874L45.3673 8.96455C43.0867 6.01322 40.1702 3.73721 36.6365 2.13704L35.8115 3.95895ZM43.7934 10.1985C45.9249 12.8781 47.3328 16.0207 48.0089 19.6473L49.9751 19.2807C49.2432 15.3553 47.7071 11.9059 45.3586 8.95347L43.7934 10.1985ZM48.7825 18.4862L42.0625 19.9262L42.4815 21.8818L49.2015 20.4418L48.7825 18.4862ZM42.4509 19.9201L41.3949 19.7281L41.0371 21.6959L42.0931 21.8879L42.4509 19.9201ZM42.1947 20.5068C41.319 16.3303 39.3166 12.9527 36.1788 10.4288L34.9252 11.9872C37.6754 14.1993 39.449 17.1577 40.2373 20.9172L42.1947 20.5068ZM36.1788 10.4288C33.0418 7.90555 29.2955 6.65599 24.992 6.65599V8.65599C28.8805 8.65599 32.1742 9.77444 34.9252 11.9872L36.1788 10.4288ZM24.992 6.65599C20.614 6.65599 16.9857 7.68534 14.2034 9.84158L15.4286 11.4224C17.7663 9.61065 20.922 8.65599 24.992 8.65599V6.65599ZM14.1938 9.84917C11.4472 12.0323 10.072 14.9826 10.072 18.6H12.072C12.072 15.5614 13.1928 13.1997 15.4382 11.4148L14.1938 9.84917ZM10.072 18.6C10.072 21.4791 11.0669 23.9203 13.0659 25.8478L14.4541 24.4082C12.8691 22.8797 12.072 20.9689 12.072 18.6H10.072ZM13.0659 25.8478C15.0154 27.7277 17.7752 29.1349 21.2637 30.1222L21.8083 28.1978C18.5128 27.2651 16.0886 25.9843 14.4541 24.4082L13.0659 25.8478ZM21.2687 30.1236L34.4207 33.7716L34.9553 31.8444L21.8033 28.1964L21.2687 30.1236ZM34.4217 33.7719C39.1419 35.0762 42.7316 37.197 45.2634 40.0905L46.7686 38.7735C43.9244 35.523 39.9621 33.2278 34.9543 31.8441L34.4217 33.7719ZM45.2703 40.0983C47.776 42.9023 49.048 46.4005 49.048 50.664H51.048C51.048 45.9675 49.632 41.9777 46.7617 38.7657L45.2703 40.0983ZM49.048 50.664C49.048 54.3896 48.1044 57.6146 46.2427 60.3771L47.9013 61.4949C50.0076 58.3694 51.048 54.7464 51.048 50.664H49.048ZM46.2399 60.3813C44.4357 63.0876 41.8362 65.2472 38.3949 66.845L39.2371 68.659C42.9638 66.9288 45.8683 64.5444 47.9041 61.4907L46.2399 60.3813ZM38.4022 66.8416C35.038 68.3708 31.0566 69.152 26.432 69.152V71.152C31.2794 71.152 35.554 70.3332 39.2298 68.6624L38.4022 66.8416ZM98.939 21.672H97.939V22.672H98.939V21.672ZM95.483 12.36L94.7758 13.0672L94.7859 13.077L95.483 12.36ZM66.683 8.904H65.683V9.904H66.683V8.904ZM66.683 1.8V0.799995H65.683V1.8H66.683ZM101.051 7.17599L101.739 6.45069L101.739 6.45069L101.051 7.17599ZM106.715 21.672V22.672H107.715V21.672H106.715ZM62.555 69H61.555V70H62.555V69ZM62.555 1.8V0.799995H61.555V1.8H62.555ZM69.755 1.8H70.755V0.799995H69.755V1.8ZM69.755 69V70H70.755V69H69.755ZM66.683 41.544H65.683V42.544H66.683V41.544ZM66.683 34.44V33.44H65.683V34.44H66.683ZM95.483 31.08L96.1801 31.7971L96.1901 31.7871L95.483 31.08ZM98.939 21.672V20.672H97.939V21.672H98.939ZM106.715 21.672H107.715V20.672H106.715V21.672ZM101.051 36.168L101.739 36.8933L101.746 36.8872L101.051 36.168ZM99.939 21.672C99.939 17.5015 98.7213 14.1137 96.1801 11.643L94.7859 13.077C96.8527 15.0863 97.939 17.9065 97.939 21.672H99.939ZM96.1901 11.6529C93.6561 9.11892 90.2095 7.904 85.979 7.904V9.904C89.8125 9.904 92.7019 10.9931 94.7759 13.0671L96.1901 11.6529ZM85.979 7.904H66.683V9.904H85.979V7.904ZM67.683 8.904V1.8H65.683V8.904H67.683ZM66.683 2.8H85.979V0.799995H66.683V2.8ZM85.979 2.8C92.0504 2.8 96.8092 4.52857 100.363 7.9013L101.739 6.45069C97.7408 2.65542 92.4516 0.799995 85.979 0.799995V2.8ZM100.363 7.9013C103.906 11.2646 105.715 15.8162 105.715 21.672H107.715C107.715 15.3678 105.748 10.2554 101.739 6.45069L100.363 7.9013ZM106.715 20.672H98.939V22.672H106.715V20.672ZM63.555 69V1.8H61.555V69H63.555ZM62.555 2.8H69.755V0.799995H62.555V2.8ZM68.755 1.8V69H70.755V1.8H68.755ZM69.755 68H62.555V70H69.755V68ZM67.683 41.544V34.44H65.683V41.544H67.683ZM66.683 35.44H85.979V33.44H66.683V35.44ZM85.979 35.44C90.2017 35.44 93.6448 34.2618 96.1801 31.797L94.7859 30.363C92.7132 32.3782 89.8203 33.44 85.979 33.44V35.44ZM96.1901 31.7871C98.7211 29.2561 99.939 25.8437 99.939 21.672H97.939C97.939 25.4363 96.8529 28.2959 94.7759 30.3729L96.1901 31.7871ZM98.939 22.672H106.715V20.672H98.939V22.672ZM105.715 21.672C105.715 27.46 103.908 32.0173 100.356 35.4488L101.746 36.8872C105.746 33.0227 107.715 27.916 107.715 21.672H105.715ZM100.363 35.4427C96.8092 38.8154 92.0504 40.544 85.979 40.544V42.544C92.4516 42.544 97.7408 40.6886 101.739 36.8933L100.363 35.4427ZM85.979 40.544H66.683V42.544H85.979V40.544ZM155.726 69L154.789 69.3492L155.031 70H155.726V69ZM131.438 3.816L130.489 4.13223L130.495 4.14879L130.501 4.16515L131.438 3.816ZM130.766 1.8V0.799995H129.379L129.817 2.11622L130.766 1.8ZM137.966 1.8L138.899 1.4412L138.653 0.799995H137.966V1.8ZM163.502 68.232H164.502V68.0464L164.435 67.8732L163.502 68.232ZM163.502 69V70H164.502V69H163.502ZM105.23 69H104.23V70H105.23V69ZM105.23 68.232L104.297 67.8732L104.23 68.0464V68.232H105.23ZM130.766 1.8V0.799995H130.079L129.833 1.4412L130.766 1.8ZM137.966 1.8L138.915 2.11622L139.353 0.799995H137.966V1.8ZM137.294 3.816L138.231 4.16515L138.237 4.14879L138.243 4.13223L137.294 3.816ZM113.006 69V70H113.701L113.943 69.3492L113.006 69ZM114.638 51.24L113.713 50.8599L113.146 52.24H114.638V51.24ZM117.518 44.232V43.232H116.848L116.593 43.8519L117.518 44.232ZM152.174 44.232L153.099 43.8519L152.844 43.232H152.174V44.232ZM155.054 51.24V52.24H156.546L155.979 50.8599L155.054 51.24ZM156.663 68.6508L132.375 3.46684L130.501 4.16515L154.789 69.3492L156.663 68.6508ZM132.387 3.49977L131.715 1.48377L129.817 2.11622L130.489 4.13223L132.387 3.49977ZM130.766 2.8H137.966V0.799995H130.766V2.8ZM137.033 2.15879L162.569 68.5908L164.435 67.8732L138.899 1.4412L137.033 2.15879ZM162.502 68.232V69H164.502V68.232H162.502ZM163.502 68H155.726V70H163.502V68ZM106.23 69V68.232H104.23V69H106.23ZM106.163 68.5908L131.699 2.15879L129.833 1.4412L104.297 67.8732L106.163 68.5908ZM130.766 2.8H137.966V0.799995H130.766V2.8ZM137.017 1.48377L136.345 3.49977L138.243 4.13223L138.915 2.11622L137.017 1.48377ZM136.357 3.46684L112.069 68.6508L113.943 69.3492L138.231 4.16515L136.357 3.46684ZM113.006 68H105.23V70H113.006V68ZM115.563 51.6201L118.443 44.6121L116.593 43.8519L113.713 50.8599L115.563 51.6201ZM117.518 45.232H152.174V43.232H117.518V45.232ZM151.249 44.6121L154.129 51.6201L155.979 50.8599L153.099 43.8519L151.249 44.6121ZM155.054 50.24H114.638V52.24H155.054V50.24ZM180.774 65.832L180.244 66.68L180.249 66.6833L180.774 65.832ZM169.83 53.736L168.935 54.1832L168.939 54.1898L168.942 54.1963L169.83 53.736ZM169.83 17.064L168.942 16.6037L168.938 16.6124L169.83 17.064ZM180.774 4.96799L180.249 4.11672L180.244 4.12L180.774 4.96799ZM213.99 5.832L213.425 6.65759L213.433 6.66242L213.99 5.832ZM225.318 20.424L225.598 21.3838L226.65 21.0765L226.248 20.0575L225.318 20.424ZM219.078 22.248L218.899 23.2319L219.131 23.2742L219.358 23.2078L219.078 22.248ZM218.022 22.056L217.099 22.4424L217.309 22.9428L217.843 23.0399L218.022 22.056ZM209.574 11.304L209.019 12.136L209.019 12.136L209.574 11.304ZM184.806 59.784L184.276 60.632L184.276 60.632L184.806 59.784ZM209.574 59.496L210.128 60.3281L210.138 60.3213L209.574 59.496ZM218.022 48.744L217.843 47.7601L217.312 47.8566L217.101 48.3531L218.022 48.744ZM219.078 48.552L219.358 47.5922L219.131 47.5258L218.899 47.5681L219.078 48.552ZM225.318 50.376L226.248 50.7425L226.65 49.7235L225.598 49.4162L225.318 50.376ZM213.99 65.064L214.547 65.8945L214.554 65.8896L213.99 65.064ZM196.71 69.152C190.927 69.152 185.799 67.7553 181.298 64.9807L180.249 66.6833C185.092 69.6687 190.589 71.152 196.71 71.152V69.152ZM181.304 64.984C176.859 62.206 173.329 58.313 170.718 53.2757L168.942 54.1963C171.706 59.527 175.473 63.698 180.244 66.68L181.304 64.984ZM170.724 53.2888C168.182 48.2035 166.894 42.2499 166.894 35.4H164.894C164.894 42.5021 166.23 48.7725 168.935 54.1832L170.724 53.2888ZM166.894 35.4C166.894 28.4841 168.182 22.533 170.722 17.5156L168.938 16.6124C166.229 21.963 164.894 28.2359 164.894 35.4H166.894ZM170.718 17.5243C173.329 12.4869 176.859 8.59404 181.304 5.81599L180.244 4.12C175.473 7.10195 171.706 11.273 168.942 16.6037L170.718 17.5243ZM181.298 5.81925C185.799 3.04469 190.927 1.648 196.71 1.648V-0.352001C190.589 -0.352001 185.092 1.13131 180.249 4.11674L181.298 5.81925ZM196.71 1.648C202.984 1.648 208.545 3.32168 213.425 6.65756L214.554 5.00643C209.322 1.43032 203.363 -0.352001 196.71 -0.352001V1.648ZM213.433 6.66242C218.3 9.92809 221.957 14.6202 224.387 20.7905L226.248 20.0575C223.687 13.5558 219.791 8.5199 214.547 5.00157L213.433 6.66242ZM225.037 19.4642L218.797 21.2882L219.358 23.2078L225.598 21.3838L225.037 19.4642ZM219.257 21.2641L218.201 21.0721L217.843 23.0399L218.899 23.2319L219.257 21.2641ZM218.944 21.6696C216.897 16.7839 213.967 13.0307 210.128 10.4719L209.019 12.136C212.477 14.4413 215.178 17.8561 217.099 22.4424L218.944 21.6696ZM210.128 10.4719C206.303 7.92159 201.915 6.65599 196.998 6.65599V8.65599C201.553 8.65599 205.549 9.8224 209.019 12.136L210.128 10.4719ZM196.998 6.65599C192.281 6.65599 188.031 7.82117 184.276 10.168L185.336 11.864C188.749 9.73082 192.627 8.65599 196.998 8.65599V6.65599ZM184.276 10.168C180.519 12.5161 177.583 15.8641 175.461 20.1743L177.255 21.0577C179.229 17.0479 181.925 13.9959 185.336 11.864L184.276 10.168ZM175.461 20.1743C173.331 24.4995 172.286 29.5852 172.286 35.4H174.286C174.286 29.8228 175.288 25.0525 177.255 21.0577L175.461 20.1743ZM172.286 35.4C172.286 41.2148 173.331 46.3005 175.461 50.6257L177.255 49.7423C175.288 45.7475 174.286 40.9772 174.286 35.4H172.286ZM175.461 50.6257C177.583 54.9359 180.519 58.2839 184.276 60.632L185.336 58.936C181.925 56.8041 179.229 53.7521 177.255 49.7423L175.461 50.6257ZM184.276 60.632C188.031 62.9788 192.281 64.144 196.998 64.144V62.144C192.627 62.144 188.749 61.0692 185.336 58.936L184.276 60.632ZM196.998 64.144C201.915 64.144 206.303 62.8784 210.128 60.328L209.019 58.6639C205.549 60.9776 201.553 62.144 196.998 62.144V64.144ZM210.138 60.3213C213.966 57.7022 216.895 53.956 218.942 49.1349L217.101 48.3531C215.181 52.876 212.477 56.2978 209.009 58.6707L210.138 60.3213ZM218.201 49.7279L219.257 49.5359L218.899 47.5681L217.843 47.7601L218.201 49.7279ZM218.797 49.5118L225.037 51.3358L225.598 49.4162L219.358 47.5922L218.797 49.5118ZM224.387 50.0095C221.956 56.181 218.298 60.9078 213.425 64.2384L214.554 65.8896C219.794 62.3082 223.687 57.243 226.248 50.7425L224.387 50.0095ZM213.433 64.2336C208.552 67.5081 202.988 69.152 196.71 69.152V71.152C203.359 71.152 209.316 69.4039 214.547 65.8944L213.433 64.2336ZM236.836 69H235.836V70H236.836V69ZM236.836 1.8V0.799995H235.836V1.8H236.836ZM244.036 1.8H245.036V0.799995H244.036V1.8ZM244.036 69V70H245.036V69H244.036ZM240.58 69H239.58V70H240.58V69ZM240.58 61.992V60.992H239.58V61.992H240.58ZM279.172 61.992H280.172V60.992H279.172V61.992ZM279.172 69V70H280.172V69H279.172ZM240.58 38.472H239.58V39.472H240.58V38.472ZM240.58 31.464V30.464H239.58V31.464H240.58ZM277.252 31.464H278.252V30.464H277.252V31.464ZM277.252 38.472V39.472H278.252V38.472H277.252ZM240.58 8.808H239.58V9.808H240.58V8.808ZM240.58 1.8V0.799995H239.58V1.8H240.58ZM279.172 1.8H280.172V0.799995H279.172V1.8ZM279.172 8.808V9.808H280.172V8.808H279.172ZM237.836 69V1.8H235.836V69H237.836ZM236.836 2.8H244.036V0.799995H236.836V2.8ZM243.036 1.8V69H245.036V1.8H243.036ZM244.036 68H236.836V70H244.036V68ZM241.58 69V61.992H239.58V69H241.58ZM240.58 62.992H279.172V60.992H240.58V62.992ZM278.172 61.992V69H280.172V61.992H278.172ZM279.172 68H240.58V70H279.172V68ZM241.58 38.472V31.464H239.58V38.472H241.58ZM240.58 32.464H277.252V30.464H240.58V32.464ZM276.252 31.464V38.472H278.252V31.464H276.252ZM277.252 37.472H240.58V39.472H277.252V37.472ZM241.58 8.808V1.8H239.58V8.808H241.58ZM240.58 2.8H279.172V0.799995H240.58V2.8ZM278.172 1.8V8.808H280.172V1.8H278.172ZM279.172 7.808H240.58V9.808H279.172V7.808ZM34.016 205L33.0171 204.952L32.9673 206H34.016V205ZM34.112 202.984L33.1924 202.591L33.1217 202.757L33.1131 202.936L34.112 202.984ZM61.952 137.8V136.8H61.2917L61.0324 137.407L61.952 137.8ZM68.768 137.8H69.768V136.8H68.768V137.8ZM68.768 139.816L69.6876 140.209L69.768 140.021V139.816H68.768ZM40.928 205V206H41.5883L41.8476 205.393L40.928 205ZM3.68 205H2.68V206H3.68V205ZM3.68 137.8V136.8H2.68V137.8H3.68ZM10.88 137.8H11.88V136.8H10.88V137.8ZM10.88 205V206H11.88V205H10.88ZM34.112 205L33.1929 205.394L33.4526 206H34.112V205ZM6.176 139.816H5.176V140.021L5.25686 140.21L6.176 139.816ZM6.176 137.8V136.8H5.176V137.8H6.176ZM13.088 137.8L14.0076 137.407L13.7483 136.8H13.088V137.8ZM40.928 202.984H41.928V202.779L41.8476 202.591L40.928 202.984ZM40.928 205V206H41.928V205H40.928ZM64.064 205H63.064V206H64.064V205ZM64.064 137.8V136.8H63.064V137.8H64.064ZM71.264 137.8H72.264V136.8H71.264V137.8ZM71.264 205V206H72.264V205H71.264ZM35.0149 205.048L35.1109 203.032L33.1131 202.936L33.0171 204.952L35.0149 205.048ZM35.0316 203.377L62.8716 138.193L61.0324 137.407L33.1924 202.591L35.0316 203.377ZM61.952 138.8H68.768V136.8H61.952V138.8ZM67.768 137.8V139.816H69.768V137.8H67.768ZM67.8484 139.423L40.0084 204.607L41.8476 205.393L69.6876 140.209L67.8484 139.423ZM40.928 204H34.016V206H40.928V204ZM4.68 205V137.8H2.68V205H4.68ZM3.68 138.8H10.88V136.8H3.68V138.8ZM9.88 137.8V205H11.88V137.8H9.88ZM10.88 204H3.68V206H10.88V204ZM35.0311 204.606L7.09515 139.422L5.25686 140.21L33.1929 205.394L35.0311 204.606ZM7.176 139.816V137.8H5.176V139.816H7.176ZM6.176 138.8H13.088V136.8H6.176V138.8ZM12.1684 138.193L40.0084 203.377L41.8476 202.591L14.0076 137.407L12.1684 138.193ZM39.928 202.984V205H41.928V202.984H39.928ZM40.928 204H34.112V206H40.928V204ZM65.064 205V137.8H63.064V205H65.064ZM64.064 138.8H71.264V136.8H64.064V138.8ZM70.264 137.8V205H72.264V137.8H70.264ZM71.264 204H64.064V206H71.264V204ZM99.1288 201.832L98.6059 202.684L98.6143 202.689L99.1288 201.832ZM87.8008 189.64L86.9107 190.096L86.9141 190.102L86.9175 190.109L87.8008 189.64ZM87.8008 153.256L86.9151 152.792L86.913 152.796L87.8008 153.256ZM99.1288 141.064L99.6433 141.922L99.6516 141.916L99.1288 141.064ZM131.769 141.064L131.241 141.913L131.248 141.917L131.254 141.921L131.769 141.064ZM143.001 153.256L142.111 153.712L142.114 153.718L142.117 153.725L143.001 153.256ZM143.001 189.64L142.115 189.176L142.113 189.18L143.001 189.64ZM131.769 201.832L132.288 202.686L132.292 202.684L131.769 201.832ZM127.833 195.688L127.305 194.838L127.299 194.843L127.833 195.688ZM136.569 185.992L135.677 185.539L135.677 185.539L136.569 185.992ZM127.833 147.112L127.299 147.957L127.307 147.963L127.316 147.968L127.833 147.112ZM103.065 147.112L103.588 147.964L103.599 147.957L103.065 147.112ZM94.3288 156.712L93.4426 156.248L93.4371 156.259L94.3288 156.712ZM94.3288 185.992L93.437 186.445L93.4427 186.455L94.3288 185.992ZM115.449 205.152C109.534 205.152 104.275 203.753 99.6432 200.975L98.6143 202.689C103.583 205.671 109.204 207.152 115.449 207.152V205.152ZM99.6516 200.98C95.0104 198.133 91.356 194.204 88.684 189.171L86.9175 190.109C89.7495 195.444 93.6471 199.643 98.6059 202.684L99.6516 200.98ZM88.6908 189.184C86.0865 184.1 84.7688 178.181 84.7688 171.4H82.7688C82.7688 178.443 84.139 184.684 86.9107 190.096L88.6908 189.184ZM84.7688 171.4C84.7688 164.619 86.0867 158.734 88.6885 153.716L86.913 152.796C84.1388 158.146 82.7688 164.357 82.7688 171.4H84.7688ZM88.6864 153.72C91.3583 148.625 95.0101 144.701 99.6432 141.921L98.6143 140.207C93.6474 143.187 89.7472 147.391 86.9151 152.792L88.6864 153.72ZM99.6516 141.916C104.282 139.077 109.538 137.648 115.449 137.648V135.648C109.199 135.648 103.576 137.163 98.6059 140.212L99.6516 141.916ZM115.449 137.648C121.426 137.648 126.679 139.078 131.241 141.913L132.297 140.215C127.386 137.162 121.76 135.648 115.449 135.648V137.648ZM131.254 141.921C135.885 144.7 139.503 148.621 142.111 153.712L143.891 152.8C141.122 147.395 137.252 143.188 132.283 140.207L131.254 141.921ZM142.117 153.725C144.78 158.741 146.129 164.622 146.129 171.4H148.129C148.129 164.354 146.725 158.139 143.884 152.787L142.117 153.725ZM146.129 171.4C146.129 178.177 144.78 184.093 142.115 189.176L143.886 190.104C146.725 184.691 148.129 178.447 148.129 171.4H146.129ZM142.113 189.18C139.505 194.208 135.885 198.134 131.246 200.98L132.292 202.684C137.253 199.642 141.12 195.44 143.889 190.1L142.113 189.18ZM131.249 200.978C126.686 203.752 121.43 205.152 115.449 205.152V207.152C121.756 207.152 127.379 205.672 132.288 202.686L131.249 200.978ZM115.449 200.144C120.232 200.144 124.548 198.945 128.367 196.533L127.299 194.843C123.822 197.039 119.881 198.144 115.449 198.144V200.144ZM128.36 196.538C132.238 194.131 135.271 190.756 137.46 186.445L135.677 185.539C133.642 189.548 130.851 192.637 127.305 194.838L128.36 196.538ZM137.46 186.445C139.656 182.12 140.737 177.095 140.737 171.4H138.737C138.737 176.841 137.705 181.544 135.677 185.539L137.46 186.445ZM140.737 171.4C140.737 165.643 139.657 160.586 137.46 156.259L135.677 157.165C137.705 161.158 138.737 165.893 138.737 171.4H140.737ZM137.46 156.259C135.27 151.946 132.234 148.6 128.349 146.256L127.316 147.968C130.856 150.104 133.643 153.158 135.677 157.165L137.46 156.259ZM128.367 146.267C124.548 143.855 120.232 142.656 115.449 142.656V144.656C119.881 144.656 123.822 145.761 127.299 147.957L128.367 146.267ZM115.449 142.656C110.665 142.656 106.35 143.855 102.531 146.267L103.599 147.957C107.076 145.761 111.016 144.656 115.449 144.656V142.656ZM102.541 146.26C98.725 148.603 95.694 151.945 93.4427 156.249L95.2148 157.175C97.3155 153.159 100.108 150.101 103.588 147.964L102.541 146.26ZM93.4371 156.259C91.2406 160.586 90.1608 165.643 90.1608 171.4H92.1608C92.1608 165.893 93.1929 161.158 95.2204 157.165L93.4371 156.259ZM90.1608 171.4C90.1608 177.095 91.2413 182.12 93.4371 186.445L95.2204 185.539C93.1922 181.544 92.1608 176.841 92.1608 171.4H90.1608ZM93.4427 186.455C95.6929 190.757 98.7208 194.127 102.531 196.533L103.599 194.843C100.113 192.641 97.3166 189.547 95.2148 185.529L93.4427 186.455ZM102.531 196.533C106.35 198.945 110.665 200.144 115.449 200.144V198.144C111.016 198.144 107.076 197.039 103.599 194.843L102.531 196.533ZM203.65 205L202.822 205.56L203.119 206H203.65V205ZM159.586 139.816H158.586V140.122L158.758 140.376L159.586 139.816ZM159.586 137.8V136.8H158.586V137.8H159.586ZM166.786 137.8L167.615 137.24L167.317 136.8H166.786V137.8ZM210.85 202.984H211.85V202.678L211.679 202.424L210.85 202.984ZM210.85 205V206H211.85V205H210.85ZM159.586 205H158.586V206H159.586V205ZM159.586 137.8V136.8H158.586V137.8H159.586ZM166.786 137.8H167.786V136.8H166.786V137.8ZM166.786 205V206H167.786V205H166.786ZM203.65 205H202.65V206H203.65V205ZM203.65 137.8V136.8H202.65V137.8H203.65ZM210.85 137.8H211.85V136.8H210.85V137.8ZM210.85 205V206H211.85V205H210.85ZM204.479 204.44L160.415 139.256L158.758 140.376L202.822 205.56L204.479 204.44ZM160.586 139.816V137.8H158.586V139.816H160.586ZM159.586 138.8H166.786V136.8H159.586V138.8ZM165.958 138.36L210.022 203.544L211.679 202.424L167.615 137.24L165.958 138.36ZM209.85 202.984V205H211.85V202.984H209.85ZM210.85 204H203.65V206H210.85V204ZM160.586 205V137.8H158.586V205H160.586ZM159.586 138.8H166.786V136.8H159.586V138.8ZM165.786 137.8V205H167.786V137.8H165.786ZM166.786 204H159.586V206H166.786V204ZM204.65 205V137.8H202.65V205H204.65ZM203.65 138.8H210.85V136.8H203.65V138.8ZM209.85 137.8V205H211.85V137.8H209.85ZM210.85 204H203.65V206H210.85V204ZM229.699 187.24H228.699V189.822L230.438 187.914L229.699 187.24ZM229.699 176.872L228.958 176.2L228.699 176.486V176.872H229.699ZM265.123 137.8V136.8H264.679L264.382 137.128L265.123 137.8ZM274.051 137.8H275.051V136.8H274.051V137.8ZM274.051 138.568L274.79 139.242L275.051 138.955V138.568H274.051ZM226.243 205H225.243V206H226.243V205ZM226.243 137.8V136.8H225.243V137.8H226.243ZM233.443 137.8H234.443V136.8H233.443V137.8ZM233.443 205V206H234.443V205H233.443ZM267.715 205L266.911 205.595L267.211 206H267.715V205ZM241.891 170.152L241.203 169.425L240.559 170.035L241.087 170.747L241.891 170.152ZM247.171 165.16L247.975 164.567L247.305 163.657L246.483 164.433L247.171 165.16ZM275.971 204.232H276.971V203.903L276.775 203.639L275.971 204.232ZM275.971 205V206H276.971V205H275.971ZM230.699 187.24V176.872H228.699V187.24H230.699ZM230.439 177.544L265.863 138.472L264.382 137.128L228.958 176.2L230.439 177.544ZM265.123 138.8H274.051V136.8H265.123V138.8ZM273.051 137.8V138.568H275.051V137.8H273.051ZM273.311 137.894L228.959 186.566L230.438 187.914L274.79 139.242L273.311 137.894ZM227.243 205V137.8H225.243V205H227.243ZM226.243 138.8H233.443V136.8H226.243V138.8ZM232.443 137.8V205H234.443V137.8H232.443ZM233.443 204H226.243V206H233.443V204ZM268.518 204.405L242.694 169.557L241.087 170.747L266.911 205.595L268.518 204.405ZM242.578 170.879L247.858 165.887L246.483 164.433L241.203 169.425L242.578 170.879ZM246.366 165.753L275.166 204.825L276.775 203.639L247.975 164.567L246.366 165.753ZM274.971 204.232V205H276.971V204.232H274.971ZM275.971 204H267.715V206H275.971V204ZM284.086 205H283.086V206H284.086V205ZM284.086 137.8V136.8H283.086V137.8H284.086ZM291.286 137.8H292.286V136.8H291.286V137.8ZM291.286 205V206H292.286V205H291.286ZM285.086 205V137.8H283.086V205H285.086ZM284.086 138.8H291.286V136.8H284.086V138.8ZM290.286 137.8V205H292.286V137.8H290.286ZM291.286 204H284.086V206H291.286V204Z" fill="black" mask="url(#path-1-outside-1_1_8)"/>
</svg>
