<svg width="292" height="207" viewBox="0 0 292 207" fill="none" xmlns="http://www.w3.org/2000/svg">
<path d="M26.432 70.152C22.016 70.152 17.984 69.32 14.336 67.656C10.688 65.992 7.648 63.688 5.216 60.744C2.784 57.736 1.152 54.248 0.32 50.28L6.944 48.648L8 48.84C8.704 51.528 9.952 53.96 11.744 56.136C13.536 58.248 15.68 59.944 18.176 61.224C20.736 62.504 23.456 63.144 26.336 63.144C29.472 63.144 32.224 62.632 34.592 61.608C37.024 60.584 38.912 59.176 40.256 57.384C41.664 55.528 42.368 53.416 42.368 51.048C42.368 47.848 41.472 45.416 39.68 43.752C37.888 42.024 35.456 40.744 32.384 39.912L19.232 36.264C14.048 34.792 10.112 32.488 7.424 29.352C4.736 26.216 3.392 22.6 3.392 18.504C3.392 14.984 4.288 11.912 6.08 9.288C7.936 6.6 10.496 4.488 13.76 2.952C17.024 1.416 20.768 0.647999 24.992 0.647999C29.152 0.647999 32.896 1.448 36.224 3.048C39.616 4.584 42.4 6.76 44.576 9.576C46.816 12.392 48.288 15.688 48.992 19.464L42.272 20.904L41.216 20.712C40.384 16.744 38.496 13.576 35.552 11.208C32.608 8.83999 29.088 7.65599 24.992 7.65599C20.768 7.65599 17.376 8.64799 14.816 10.632C12.32 12.616 11.072 15.272 11.072 18.6C11.072 21.224 11.968 23.4 13.76 25.128C15.552 26.856 18.144 28.2 21.536 29.16L34.688 32.808C39.552 34.152 43.328 36.36 46.016 39.432C48.704 42.44 50.048 46.184 50.048 50.664C50.048 54.568 49.056 57.992 47.072 60.936C45.152 63.816 42.4 66.088 38.816 67.752C35.296 69.352 31.168 70.152 26.432 70.152ZM98.939 21.672C98.939 17.704 97.787 14.6 95.483 12.36C93.179 10.056 90.011 8.904 85.979 8.904H66.683V1.8H85.979C92.251 1.8 97.275 3.592 101.051 7.17599C104.827 10.76 106.715 15.592 106.715 21.672H98.939ZM62.555 69V1.8H69.755V69H62.555ZM66.683 41.544V34.44H85.979C90.011 34.44 93.179 33.32 95.483 31.08C97.787 28.776 98.939 25.64 98.939 21.672H106.715C106.715 27.688 104.827 32.52 101.051 36.168C97.275 39.752 92.251 41.544 85.979 41.544H66.683ZM155.726 69L131.438 3.816L130.766 1.8H137.966L163.502 68.232V69H155.726ZM105.23 69V68.232L130.766 1.8H137.966L137.294 3.816L113.006 69H105.23ZM114.638 51.24L117.518 44.232H152.174L155.054 51.24H114.638ZM196.71 70.152C190.758 70.152 185.446 68.712 180.774 65.832C176.166 62.952 172.518 58.92 169.83 53.736C167.206 48.488 165.894 42.376 165.894 35.4C165.894 28.36 167.206 22.248 169.83 17.064C172.518 11.88 176.166 7.848 180.774 4.96799C185.446 2.088 190.758 0.647999 196.71 0.647999C203.174 0.647999 208.934 2.376 213.99 5.832C219.046 9.224 222.822 14.088 225.318 20.424L219.078 22.248L218.022 22.056C216.038 17.32 213.222 13.736 209.574 11.304C205.926 8.872 201.734 7.65599 196.998 7.65599C192.454 7.65599 188.39 8.776 184.806 11.016C181.222 13.256 178.406 16.456 176.358 20.616C174.31 24.776 173.286 29.704 173.286 35.4C173.286 41.096 174.31 46.024 176.358 50.184C178.406 54.344 181.222 57.544 184.806 59.784C188.39 62.024 192.454 63.144 196.998 63.144C201.734 63.144 205.926 61.928 209.574 59.496C213.222 57 216.038 53.416 218.022 48.744L219.078 48.552L225.318 50.376C222.822 56.712 219.046 61.608 213.99 65.064C208.934 68.456 203.174 70.152 196.71 70.152ZM236.836 69V1.8H244.036V69H236.836ZM240.58 69V61.992H279.172V69H240.58ZM240.58 38.472V31.464H277.252V38.472H240.58ZM240.58 8.808V1.8H279.172V8.808H240.58ZM34.016 205L34.112 202.984L61.952 137.8H68.768V139.816L40.928 205H34.016ZM3.68 205V137.8H10.88V205H3.68ZM34.112 205L6.176 139.816V137.8H13.088L40.928 202.984V205H34.112ZM64.064 205V137.8H71.264V205H64.064ZM115.449 206.152C109.369 206.152 103.929 204.712 99.1288 201.832C94.3288 198.888 90.5528 194.824 87.8008 189.64C85.1128 184.392 83.7688 178.312 83.7688 171.4C83.7688 164.488 85.1128 158.44 87.8008 153.256C90.5528 148.008 94.3288 143.944 99.1288 141.064C103.929 138.12 109.369 136.648 115.449 136.648C121.593 136.648 127.033 138.12 131.769 141.064C136.569 143.944 140.313 148.008 143.001 153.256C145.753 158.44 147.129 164.488 147.129 171.4C147.129 178.312 145.753 184.392 143.001 189.64C140.313 194.824 136.569 198.888 131.769 201.832C127.033 204.712 121.593 206.152 115.449 206.152ZM115.449 199.144C120.057 199.144 124.185 197.992 127.833 195.688C131.545 193.384 134.457 190.152 136.569 185.992C138.681 181.832 139.737 176.968 139.737 171.4C139.737 165.768 138.681 160.872 136.569 156.712C134.457 152.552 131.545 149.352 127.833 147.112C124.185 144.808 120.057 143.656 115.449 143.656C110.841 143.656 106.713 144.808 103.065 147.112C99.4168 149.352 96.5048 152.552 94.3288 156.712C92.2168 160.872 91.1608 165.768 91.1608 171.4C91.1608 176.968 92.2168 181.832 94.3288 185.992C96.5048 190.152 99.4168 193.384 103.065 195.688C106.713 197.992 110.841 199.144 115.449 199.144ZM203.65 205L159.586 139.816V137.8H166.786L210.85 202.984V205H203.65ZM159.586 205V137.8H166.786V205H159.586ZM203.65 205V137.8H210.85V205H203.65ZM229.699 187.24V176.872L265.123 137.8H274.051V138.568L229.699 187.24ZM226.243 205V137.8H233.443V205H226.243ZM267.715 205L241.891 170.152L247.171 165.16L275.971 204.232V205H267.715ZM284.086 205V137.8H291.286V205H284.086Z" fill="white"/>
</svg>
